<?xml version="1.0" encoding="UTF-8" standalone="no"?>
<!-- Created with Inkscape (http://www.inkscape.org/) -->

<svg
   version="1.1"
   id="svg9"
   width="1707.33"
   height="809.33301"
   viewBox="0 0 1707.33 809.33305"
   sodipodi:docname="background_show.svg"
   inkscape:version="1.2.1 (9c6d41e410, 2022-07-14)"
   xmlns:inkscape="http://www.inkscape.org/namespaces/inkscape"
   xmlns:sodipodi="http://sodipodi.sourceforge.net/DTD/sodipodi-0.dtd"
   xmlns="http://www.w3.org/2000/svg"
   xmlns:svg="http://www.w3.org/2000/svg">
  <defs
     id="defs13">
    <clipPath
       clipPathUnits="userSpaceOnUse"
       id="clipPath628">
      <g
         id="g632"
         transform="translate(-694.4069,-456.5791)">
        <path
           d="M 0,0 H 750 V 500 H 0 Z"
           id="path630" />
      </g>
    </clipPath>
    <clipPath
       clipPathUnits="userSpaceOnUse"
       id="clipPath634">
      <g
         id="g638"
         transform="translate(-390.7076,-43.7715)">
        <path
           d="M 0,0 H 750 V 500 H 0 Z"
           id="path636" />
      </g>
    </clipPath>
    <clipPath
       clipPathUnits="userSpaceOnUse"
       id="clipPath640">
      <g
         id="g644"
         transform="translate(-222.4977,-407.4819)">
        <path
           d="M 0,0 H 750 V 500 H 0 Z"
           id="path642" />
      </g>
    </clipPath>
    <clipPath
       clipPathUnits="userSpaceOnUse"
       id="clipPath646">
      <g
         id="g650"
         transform="translate(-465.0094,-540.4443)">
        <path
           d="M 0,0 H 750 V 500 H 0 Z"
           id="path648" />
      </g>
    </clipPath>
    <clipPath
       clipPathUnits="userSpaceOnUse"
       id="clipPath664">
      <g
         id="g668"
         transform="translate(-630.9108,-509.2036)">
        <path
           d="M 0,0 H 750 V 500 H 0 Z"
           id="path666" />
      </g>
    </clipPath>
    <clipPath
       clipPathUnits="userSpaceOnUse"
       id="clipPath682">
      <g
         id="g686"
         transform="translate(-94.1871,-107.9287)">
        <path
           d="M 0,0 H 750 V 500 H 0 Z"
           id="path684" />
      </g>
    </clipPath>
    <clipPath
       clipPathUnits="userSpaceOnUse"
       id="clipPath688">
      <g
         id="g692"
         transform="translate(-729.0963,-374.7886)">
        <path
           d="M 0,0 H 750 V 500 H 0 Z"
           id="path690" />
      </g>
    </clipPath>
    <clipPath
       clipPathUnits="userSpaceOnUse"
       id="clipPath694">
      <g
         id="g698"
         transform="translate(-464.4146,-379.812)">
        <path
           d="M 0,0 H 750 V 500 H 0 Z"
           id="path696" />
      </g>
    </clipPath>
    <clipPath
       clipPathUnits="userSpaceOnUse"
       id="clipPath700">
      <g
         id="g704"
         transform="translate(-179.3443,-299.7837)">
        <path
           d="M 0,0 H 750 V 500 H 0 Z"
           id="path702" />
      </g>
    </clipPath>
    <clipPath
       clipPathUnits="userSpaceOnUse"
       id="clipPath706">
      <g
         id="g710"
         transform="translate(76.9506,-56.0859)">
        <path
           d="M 0,0 H 750 V 500 H 0 Z"
           id="path708" />
      </g>
    </clipPath>
    <clipPath
       clipPathUnits="userSpaceOnUse"
       id="clipPath718">
      <g
         id="g722"
         transform="translate(13.474,-82.958)">
        <path
           d="M 0,0 H 750 V 500 H 0 Z"
           id="path720" />
      </g>
    </clipPath>
    <clipPath
       clipPathUnits="userSpaceOnUse"
       id="clipPath724">
      <g
         id="g728"
         transform="translate(-418.6305,-442.3745)">
        <path
           d="M 0,0 H 750 V 500 H 0 Z"
           id="path726" />
      </g>
    </clipPath>
    <clipPath
       clipPathUnits="userSpaceOnUse"
       id="clipPath730">
      <g
         id="g734"
         transform="translate(-645.901,-364.375)">
        <path
           d="M 0,0 H 750 V 500 H 0 Z"
           id="path732" />
      </g>
    </clipPath>
    <clipPath
       clipPathUnits="userSpaceOnUse"
       id="clipPath736">
      <g
         id="g740"
         transform="translate(-660.2252,-315.626)">
        <path
           d="M 0,0 H 750 V 500 H 0 Z"
           id="path738" />
      </g>
    </clipPath>
    <clipPath
       clipPathUnits="userSpaceOnUse"
       id="clipPath742">
      <g
         id="g746"
         transform="translate(-240.2789,-95.5781)">
        <path
           d="M 0,0 H 750 V 500 H 0 Z"
           id="path744" />
      </g>
    </clipPath>
    <clipPath
       clipPathUnits="userSpaceOnUse"
       id="clipPath748">
      <g
         id="g752"
         transform="translate(-514.3385,-317.8701)">
        <path
           d="M 0,0 H 750 V 500 H 0 Z"
           id="path750" />
      </g>
    </clipPath>
    <clipPath
       clipPathUnits="userSpaceOnUse"
       id="clipPath754">
      <g
         id="g758"
         transform="translate(-514.3385,-334.3589)">
        <path
           d="M 0,0 H 750 V 500 H 0 Z"
           id="path756" />
      </g>
    </clipPath>
    <clipPath
       clipPathUnits="userSpaceOnUse"
       id="clipPath760">
      <g
         id="g764"
         transform="translate(-498.2789,-317.8701)">
        <path
           d="M 0,0 H 750 V 500 H 0 Z"
           id="path762" />
      </g>
    </clipPath>
    <clipPath
       clipPathUnits="userSpaceOnUse"
       id="clipPath766">
      <g
         id="g770"
         transform="translate(-498.2789,-334.3589)">
        <path
           d="M 0,0 H 750 V 500 H 0 Z"
           id="path768" />
      </g>
    </clipPath>
    <clipPath
       clipPathUnits="userSpaceOnUse"
       id="clipPath772">
      <g
         id="g776"
         transform="translate(-65.7506,-396.0742)">
        <path
           d="M 0,0 H 750 V 500 H 0 Z"
           id="path774" />
      </g>
    </clipPath>
    <clipPath
       clipPathUnits="userSpaceOnUse"
       id="clipPath778">
      <g
         id="g782"
         transform="translate(-419.4371,-387.9541)">
        <path
           d="M 0,0 H 750 V 500 H 0 Z"
           id="path780" />
      </g>
    </clipPath>
    <clipPath
       clipPathUnits="userSpaceOnUse"
       id="clipPath784">
      <g
         id="g788"
         transform="translate(-219.984,-305.8091)">
        <path
           d="M 0,0 H 750 V 500 H 0 Z"
           id="path786" />
      </g>
    </clipPath>
    <clipPath
       clipPathUnits="userSpaceOnUse"
       id="clipPath790">
      <g
         id="g794"
         transform="translate(-207.0172,-305.8091)">
        <path
           d="M 0,0 H 750 V 500 H 0 Z"
           id="path792" />
      </g>
    </clipPath>
    <clipPath
       clipPathUnits="userSpaceOnUse"
       id="clipPath796">
      <g
         id="g800"
         transform="translate(-604.9899,-90.5146)">
        <path
           d="M 0,0 H 750 V 500 H 0 Z"
           id="path798" />
      </g>
    </clipPath>
    <clipPath
       clipPathUnits="userSpaceOnUse"
       id="clipPath802">
      <g
         id="g806"
         transform="translate(-585.0553,-90.5146)">
        <path
           d="M 0,0 H 750 V 500 H 0 Z"
           id="path804" />
      </g>
    </clipPath>
    <clipPath
       clipPathUnits="userSpaceOnUse"
       id="clipPath814">
      <g
         id="g818"
         transform="translate(-21.2496,-297.5498)">
        <path
           d="M 0,0 H 750 V 500 H 0 Z"
           id="path816" />
      </g>
    </clipPath>
    <clipPath
       clipPathUnits="userSpaceOnUse"
       id="clipPath820">
      <g
         id="g824"
         transform="translate(-242.6793,-185.0625)">
        <path
           d="M 0,0 H 750 V 500 H 0 Z"
           id="path822" />
      </g>
    </clipPath>
    <clipPath
       clipPathUnits="userSpaceOnUse"
       id="clipPath826">
      <g
         id="g830"
         transform="translate(-224.6559,-167.0381)">
        <path
           d="M 0,0 H 750 V 500 H 0 Z"
           id="path828" />
      </g>
    </clipPath>
    <clipPath
       clipPathUnits="userSpaceOnUse"
       id="clipPath832">
      <g
         id="g836"
         transform="translate(-710.525,-205.4668)">
        <path
           d="M 0,0 H 750 V 500 H 0 Z"
           id="path834" />
      </g>
    </clipPath>
    <clipPath
       clipPathUnits="userSpaceOnUse"
       id="clipPath838">
      <g
         id="g842"
         transform="translate(-232.1627,-389.1636)">
        <path
           d="M 0,0 H 750 V 500 H 0 Z"
           id="path840" />
      </g>
    </clipPath>
    <clipPath
       clipPathUnits="userSpaceOnUse"
       id="clipPath844">
      <g
         id="g848"
         transform="translate(-698.4459,0.1494)">
        <path
           d="M 0,0 H 750 V 500 H 0 Z"
           id="path846" />
      </g>
    </clipPath>
    <clipPath
       clipPathUnits="userSpaceOnUse"
       id="clipPath850">
      <g
         id="g854"
         transform="translate(-189.4225,-499.792)">
        <path
           d="M 0,0 H 750 V 500 H 0 Z"
           id="path852" />
      </g>
    </clipPath>
    <clipPath
       clipPathUnits="userSpaceOnUse"
       id="clipPath856">
      <g
         id="g860"
         transform="translate(-249.2428,-499.0806)">
        <path
           d="M 0,0 H 750 V 500 H 0 Z"
           id="path858" />
      </g>
    </clipPath>
    <clipPath
       clipPathUnits="userSpaceOnUse"
       id="clipPath878">
      <g
         id="g884">
        <g
           id="g882">
          <path
             d="M 0,0 H 750 V 500 H 0 Z"
             id="path880" />
        </g>
      </g>
    </clipPath>
    <clipPath
       clipPathUnits="userSpaceOnUse"
       id="clipPath1133">
      <g
         id="g1139">
        <g
           id="g1137">
          <path
             d="M 0,0 H 750 V 500 H 0 Z"
             id="path1135" />
        </g>
      </g>
    </clipPath>
    <clipPath
       clipPathUnits="userSpaceOnUse"
       id="clipPath1170">
      <g
         id="g1176">
        <g
           id="g1174">
          <path
             d="M 0,0 H 750 V 500 H 0 Z"
             id="path1172" />
        </g>
      </g>
    </clipPath>
    <clipPath
       clipPathUnits="userSpaceOnUse"
       id="clipPath1422">
      <g
         id="g1428">
        <g
           id="g1426">
          <path
             d="M 0,0 H 750 V 500 H 0 Z"
             id="path1424" />
        </g>
      </g>
    </clipPath>
    <clipPath
       clipPathUnits="userSpaceOnUse"
       id="clipPath1459">
      <g
         id="g1465">
        <g
           id="g1463">
          <path
             d="M 0,0 H 750 V 500 H 0 Z"
             id="path1461" />
        </g>
      </g>
    </clipPath>
    <clipPath
       clipPathUnits="userSpaceOnUse"
       id="clipPath1496">
      <g
         id="g1502">
        <g
           id="g1500">
          <path
             d="M 0,0 H 750 V 500 H 0 Z"
             id="path1498" />
        </g>
      </g>
    </clipPath>
  </defs>
  <sodipodi:namedview
     id="namedview11"
     pagecolor="#ffffff"
     bordercolor="#000000"
     borderopacity="0.25"
     inkscape:showpageshadow="2"
     inkscape:pageopacity="0.0"
     inkscape:pagecheckerboard="0"
     inkscape:deskcolor="#d1d1d1"
     showgrid="false"
     inkscape:zoom="1.1688475"
     inkscape:cx="84.698817"
     inkscape:cy="509.90399"
     inkscape:window-width="2560"
     inkscape:window-height="1334"
     inkscape:window-x="-11"
     inkscape:window-y="-11"
     inkscape:window-maximized="1"
     inkscape:current-layer="g17">
    <inkscape:page
       x="0"
       y="0"
       id="page15"
       width="1707.33"
       height="809.33307" />
  </sodipodi:namedview>
  <g
     id="g17"
     inkscape:groupmode="layer"
     inkscape:label="Page 1"
     transform="matrix(1.3333333,0,0,-1.3333333,0,666.66667)"
     style="display:inline">
    <path
       d="m 1289.4947,223.17952 -79.2266,79.22661 c -17.762,17.76196 -46.5598,17.76196 -64.3227,0 v 0 c -17.761,-17.76196 -17.761,-46.55977 0,-64.32173 l 36.0835,-36.08352 c 7.7989,-7.79798 7.7989,-20.44214 0,-28.23915 -7.7979,-7.79798 -20.4402,-7.79798 -28.2382,0 l -7.8453,7.8434 c -16.029,16.02993 -42.0171,16.02993 -58.046,0 -16.029,-16.02896 -16.029,-42.01707 0,-58.04603 l 32.1613,-32.161347 c 3.465,-3.46597 3.465,-9.084423 0,-12.550406 -3.4659,-3.465984 -9.0854,-3.465984 -12.5504,0 l -78.4418,78.441773 c -13.864,13.86297 -36.34068,13.86297 -50.20364,0 -13.86296,-13.86393 -13.86296,-36.34062 0,-50.20262 l 21.17964,-21.179607 c 3.0329,-3.032978 3.0329,-7.949722 0,-10.9827 -3.03204,-3.03104 -7.94879,-3.03104 -10.98176,0 l -1.75619,1.757152 c -37.15348,37.153475 -98.46468,38.196415 -134.54509,0 -63.44886,-67.1699498 12.77201,-144.713776 12.77201,-144.713776 6.22983,-6.290023 11.93603,-17.544421 8.79413,-23.808291 -7.84716,-14.371278 -17.02424,-15.303218 -25.77586,-24.516998 l 498.81496,-431.16502 56.6523,587.93305 c 0,0 -121.5848,175.70966 -114.5243,182.76921"
       style="fill:#fa9191;fill-opacity:1;fill-rule:nonzero;stroke:none;stroke-width:0.966531"
       id="path61-4"
       sodipodi:nodetypes="csssccccccsccccccscccscccccc" />
    <path
       d="M -73.583506,488.30341 66.486296,334.68145 c 29.212764,-29.4373 68.330344,7.44824 40.859464,38.7218 l -19.061105,19.05857 c -4.023349,4.02334 -4.023349,10.54495 0,14.56703 l 0.187781,0.18905 c 4.183216,4.18322 10.900215,4.18956 15.045364,0.0419 6.38712,-6.38838 50.54499,-50.54752 60.47837,-60.48218 21.04043,-21.04169 55.15578,-21.04296 76.19747,-9e-4 21.04043,21.04043 21.04043,55.15578 0,76.19621 -361.5318,317.43347 -48.92696,41.25949 -224.930776,196.93285"
       style="display:inline;fill:#fa9191;fill-opacity:1;fill-rule:nonzero;stroke:none;stroke-width:1.2688"
       id="path29"
       sodipodi:nodetypes="ccccccccscc" />
    <path
       d="m 865.96631,404.38234 c 33.57635,0 60.78558,27.20707 60.78558,60.77043 0,33.56228 -27.20923,60.77043 -60.78558,60.77043 -33.56335,0 -60.77043,-27.20815 -60.77043,-60.77043 0,-33.56336 27.20708,-60.77043 60.77043,-60.77043 m 0,136.45731 c 41.7362,0 75.70203,-33.95069 75.70203,-75.68688 0,-41.73727 -33.96583,-75.70202 -75.70203,-75.70202 -41.73727,0 -75.68795,33.96475 -75.68795,75.70202 0,41.73619 33.95068,75.68688 75.68795,75.68688"
       style="fill:#ffd31d;fill-opacity:1;fill-rule:nonzero;stroke:none;stroke-width:1.08192"
       id="path245-5" />
    <path
       d="M 991.63763,20.704801 851.80079,160.54163"
       style="fill:#ffb2a6;fill-opacity:1;stroke:#ffd31d;stroke-width:2.89959;stroke-linecap:round;stroke-linejoin:miter;stroke-miterlimit:10;stroke-dasharray:none;stroke-opacity:1"
       id="path257-3" />
    <path
       d="m 1190.5587,99.214873 c -4.1841,4.236297 -11.0107,4.251767 -15.221,0.0425 -4.1909,-4.19185 -4.1909,-10.98753 0,-15.178415 l 16.2407,-16.241596 c 2.1031,-2.102208 2.1031,-5.511159 0,-7.614332 -2.1022,-2.102207 -5.5111,-2.102207 -7.6143,0 l -6.7687,6.768618 c -4.5939,4.594898 -12.0439,4.594898 -16.6388,0 -4.593,-4.594888 -4.593,-12.043947 0,-16.638836 81.1208,-81.440648 162.9689,-162.161412 244.5427,-243.149622 l 0.1045,77.52282"
       style="fill:#bfc6e1;fill-opacity:1;fill-rule:nonzero;stroke:none;stroke-width:0.966531"
       id="path249-2"
       sodipodi:nodetypes="ccccscccccc" />
    <path
       d="m 1035.424,144.17374 c 0,-4.16092 3.3732,-7.53315 7.5342,-7.53315 4.1608,0 7.5331,3.37223 7.5331,7.53315 0,4.16092 -3.3723,7.53412 -7.5331,7.53412 -4.161,0 -7.5342,-3.3732 -7.5342,-7.53412"
       style="display:inline;fill:#ffd31d;fill-opacity:1;fill-rule:nonzero;stroke:none;stroke-width:0.966531"
       id="path201" />
    <path
       d="m 159.96788,308.8313 c 0,-3.88394 3.14775,-7.03169 7.03169,-7.03169 3.88395,0 7.0317,3.14775 7.0317,7.03169 0,3.88394 -3.14775,7.0317 -7.0317,7.0317 -3.88394,0 -7.03169,-3.14776 -7.03169,-7.0317"
       style="display:inline;fill:#ffd31d;fill-opacity:1;fill-rule:nonzero;stroke:none;stroke-width:0.902193"
       id="path205" />
    <path
       d="M 1286.2659,127.01455 1161.334,251.9465"
       style="display:inline;fill:none;stroke:#ffffff;stroke-width:2.89959;stroke-linecap:round;stroke-linejoin:miter;stroke-miterlimit:10;stroke-dasharray:none;stroke-opacity:1"
       id="path217" />
    <path
       d="M 1369.3186,87.074583 1244.3866,212.00655"
       style="display:inline;fill:none;stroke:#ffffff;stroke-width:2.89959;stroke-linecap:round;stroke-linejoin:miter;stroke-miterlimit:10;stroke-dasharray:none;stroke-opacity:1"
       id="path217-1" />
    <path
       d="M 1153.0998,-25.756514 1041.1222,86.220033"
       style="display:inline;fill:none;stroke:#ffffff;stroke-width:2.89959;stroke-linecap:round;stroke-linejoin:miter;stroke-miterlimit:10;stroke-dasharray:none;stroke-opacity:1"
       id="path221-5" />
    <path
       d="m 1184.6887,154.25044 c 0,-10.9189 8.8505,-19.77041 19.7695,-19.77041 10.9189,0 19.7694,8.85151 19.7694,19.77041 0,10.91892 -8.8505,19.76945 -19.7694,19.76945 -10.919,0 -19.7695,-8.85053 -19.7695,-19.76945"
       style="display:inline;fill:#ffffff;fill-opacity:1;fill-rule:nonzero;stroke:none;stroke-width:0.966531"
       id="path241" />
    <path
       d="m 225.10456,405.0912 c 7.16995,-7.16996 7.16995,-18.79593 0,-25.96716 -7.17123,-7.17123 -18.7972,-7.17123 -25.96716,0 l -41.29293,41.29293 c -2.46906,2.4678 -6.47085,2.4678 -8.93993,0 -2.4678,-2.46908 -2.4678,-6.47213 0,-8.93993 l 14.0481,-14.04809 c 3.87997,-3.87998 3.87997,-10.1694 0,-14.0481 -3.8787,-3.87871 -10.16939,-3.87871 -14.0481,0 l -37.85957,37.85957 c -8.4895,8.49077 -21.254845,10.10087 -31.367139,4.83156 -2.365034,-1.23453 -4.586694,-2.84463 -6.572357,-4.83156 l -5.82897,-5.65564 c -9.467747,-9.18735 -24.604468,-8.91202 -33.730909,0.61156 L -76.614828,524.08463 c 62.899081,25.7348 54.868195,26.29757 128.387288,48.63847 59.65065,-55.02581 116.52389,-110.82464 173.3321,-167.6319 z"
       style="display:inline;fill:#bfc6e1;fill-opacity:1;fill-rule:nonzero;stroke:none;stroke-width:1.2688"
       id="path253"
       sodipodi:nodetypes="cccccsscscccccccc" />
    <path
       d="M 895.61149,89.139563 868.3437,116.40639"
       style="display:inline;fill:#ffb2a6;fill-opacity:1;stroke:#ffd31d;stroke-width:2.89959;stroke-linecap:round;stroke-linejoin:miter;stroke-miterlimit:10;stroke-dasharray:none;stroke-opacity:1"
       id="path273" />
    <path
       d="m -360.33893,238.32248 c 0,-35.861 29.071,-64.932 64.932,-64.932 35.861,0 64.932,29.071 64.932,64.932 0,35.861 -29.071,64.932 -64.932,64.932 -35.861,0 -64.932,-29.071 -64.932,-64.932"
       style="display:inline;fill:#a5e4dc;fill-opacity:1;fill-rule:nonzero;stroke:none"
       id="path33" />
    <path
       d="m 14.135945,-49.951604 c 0,-24.34431 19.73533,-44.08071 44.08072,-44.08071 24.345393,0 44.080705,19.7364 44.080705,44.08071 0,24.34539 -19.735312,44.0807199 -44.080705,44.0807199 -24.34539,0 -44.08072,-19.7353299 -44.08072,-44.0807199"
       style="display:inline;fill:#a5e4dc;fill-opacity:1;fill-rule:nonzero;stroke:none;stroke-width:1.08192"
       id="path37" />
    <path
       d="m 112.67857,-76.973869 c 13.5531,0 24.53525,10.98216 24.53525,24.5287 0,13.54736 -10.98215,24.52951 -24.53525,24.52951 -13.54654,0 -24.5287,-10.98215 -24.5287,-24.52951 0,-13.54654 10.98216,-24.5287 24.5287,-24.5287 m 0,55.07944 c 16.84619,0 30.55567,-13.70374 30.55567,-30.55074 0,-16.84618 -13.70948,-30.55566 -30.55567,-30.55566 -16.84618,0 -30.54993,13.70948 -30.54993,30.55566 0,16.847 13.70375,30.55074 30.54993,30.55074"
       style="display:inline;fill:#ffd31d;fill-opacity:1;fill-rule:nonzero;stroke:none;stroke-width:0.818769"
       id="path41" />
    <path
       d="m 294.52591,464.78218 c 0,-8.75127 -7.09394,-15.84521 -15.84521,-15.84521 -8.75218,0 -15.84612,7.09394 -15.84612,15.84521 0,8.75127 7.09394,15.84522 15.84612,15.84522 8.75127,0 15.84521,-7.09395 15.84521,-15.84522"
       style="display:inline;fill:#a5e4dc;fill-opacity:1;fill-rule:nonzero;stroke:none;stroke-width:0.902193"
       id="path45" />
    <path
       d="m 1059.2306,208.54262 c 0,-4.49341 3.6428,-8.13626 8.1362,-8.13626 4.4934,0 8.1363,3.64285 8.1363,8.13626 0,4.4934 -3.6429,8.13722 -8.1363,8.13722 -4.4934,0 -8.1362,-3.64382 -8.1362,-8.13722"
       style="display:inline;fill:#c0f0e6;fill-opacity:1;fill-rule:nonzero;stroke:none;stroke-width:0.966531"
       id="path49" />
    <path
       d="m 299.9165,384.88193 c 0,-8.75127 7.09394,-15.84611 15.84521,-15.84611 8.75217,0 15.84611,7.09484 15.84611,15.84611 0,8.75127 -7.09394,15.84522 -15.84611,15.84522 -8.75127,0 -15.84521,-7.09395 -15.84521,-15.84522"
       style="display:inline;fill:#ffd31d;fill-opacity:1;fill-rule:nonzero;stroke:none;stroke-width:0.902193"
       id="path57" />
    <path
       d="m 26.761774,100.03871 v 0 c 1.49637,1.49637 3.92061,1.49637 5.41567,0 l 11.53051,-11.5292 c 1.49375,-1.496368 1.49375,-3.920609 0,-5.415668 -1.49636,-1.495058 -3.9206,-1.495058 -5.41697,0 l -11.52921,11.529202 c -1.49636,1.495058 -1.49636,3.920609 0,5.415666"
       style="display:inline;fill:#a5e4dc;fill-opacity:1;fill-rule:nonzero;stroke:none;stroke-width:1.30687"
       id="path73" />
    <path
       d="m 43.707694,100.03871 v 0 c 1.49506,-1.495057 1.49506,-3.920608 0,-5.415666 L 32.177184,83.093842 c -1.49506,-1.495058 -3.9193,-1.495058 -5.41566,0 -1.49506,1.495059 -1.49506,3.9193 0,5.415668 l 11.5292,11.5292 c 1.49636,1.49637 3.9206,1.49637 5.41697,0"
       style="display:inline;fill:#a5e4dc;fill-opacity:1;fill-rule:nonzero;stroke:none;stroke-width:1.30687"
       id="path77" />
    <path
       d="m -287.38251,216.06458 -127.182,127.182"
       style="display:inline;fill:#fa9191;fill-opacity:1;stroke:#ffd31d;stroke-width:3;stroke-linecap:round;stroke-linejoin:miter;stroke-miterlimit:10;stroke-dasharray:none;stroke-opacity:1"
       id="path209" />
    <path
       d="m 757.9928,464.76174 v 0 c 1.5453,1.5453 4.04883,1.5453 5.59279,0 l 11.90762,-11.90628 c 1.54261,-1.54531 1.54261,-4.04883 0,-5.59279 -1.5453,-1.54396 -4.04883,-1.54396 -5.59414,0 l -11.90627,11.90627 c -1.54531,1.54396 -1.54531,4.04884 0,5.5928"
       style="display:inline;fill:#a5e4dc;fill-opacity:1;fill-rule:nonzero;stroke:none;stroke-width:1.34961"
       id="path73-6" />
    <path
       d="m 775.49294,464.76174 v 0 c 1.54396,-1.54396 1.54396,-4.04884 0,-5.5928 l -11.90762,-11.90627 c -1.54396,-1.54396 -4.04749,-1.54396 -5.59279,0 -1.54396,1.54396 -1.54396,4.04748 0,5.59279 l 11.90627,11.90628 c 1.54531,1.5453 4.04884,1.5453 5.59414,0"
       style="display:inline;fill:#a5e4dc;fill-opacity:1;fill-rule:nonzero;stroke:none;stroke-width:1.34961"
       id="path77-9" />
    <path
       d="m -415.92831,376.70737 117.183,-117.183"
       style="display:inline;fill:none;stroke:#ffd31d;stroke-width:3;stroke-linecap:round;stroke-linejoin:miter;stroke-miterlimit:10;stroke-dasharray:none;stroke-opacity:1"
       id="path265" />
    <path
       d="m 831.39176,-58.302008 c 0,-9.415884 7.63276,-17.047753 17.04864,-17.047753 9.415,0 17.04776,7.631869 17.04776,17.047753 0,9.415885 -7.63276,17.047753 -17.04776,17.047753 -9.41588,0 -17.04864,-7.631868 -17.04864,-17.047753"
       style="display:inline;fill:#a5e4dc;fill-opacity:1;fill-rule:nonzero;stroke:none;stroke-width:0.893348"
       id="path81" />
    <path
       d="m 1111.1639,312.93023 c 0,-1.55711 1.2614,-2.81941 2.8185,-2.81941 1.5571,0 2.8203,1.2623 2.8203,2.81941 0,1.5571 -1.2632,2.8194 -2.8203,2.8194 -1.5571,0 -2.8185,-1.2623 -2.8185,-2.8194"
       style="display:inline;fill:#a5e4dc;fill-opacity:1;fill-rule:nonzero;stroke:none;stroke-width:0.893348"
       id="path89" />
    <path
       d="m 1111.1639,298.2 c 0,-1.55711 1.2614,-2.81941 2.8185,-2.81941 1.5571,0 2.8203,1.2623 2.8203,2.81941 0,1.5571 -1.2632,2.8194 -2.8203,2.8194 -1.5571,0 -2.8185,-1.2623 -2.8185,-2.8194"
       style="display:inline;fill:#a5e4dc;fill-opacity:1;fill-rule:nonzero;stroke:none;stroke-width:0.893348"
       id="path93" />
    <path
       d="m 1096.8171,312.64361 c 0,-1.5571 1.2623,-2.8194 2.8194,-2.8194 1.5571,0 2.8203,1.2623 2.8203,2.8194 0,1.55711 -1.2632,2.81941 -2.8203,2.81941 -1.5571,0 -2.8194,-1.2623 -2.8194,-2.81941"
       style="display:inline;fill:#a5e4dc;fill-opacity:1;fill-rule:nonzero;stroke:none;stroke-width:0.893348"
       id="path97" />
    <path
       d="m 1096.8171,298.2 c 0,-1.55711 1.2623,-2.81941 2.8194,-2.81941 1.5571,0 2.8203,1.2623 2.8203,2.81941 0,1.5571 -1.2632,2.8194 -2.8203,2.8194 -1.5571,0 -2.8194,-1.2623 -2.8194,-2.8194"
       style="display:inline;fill:#a5e4dc;fill-opacity:1;fill-rule:nonzero;stroke:none;stroke-width:0.893348"
       id="path101" />
    <path
       d="m 942.34223,-77.020716 -6.76863,6.768627 c -4.59395,4.594889 -12.04405,4.594889 -16.63889,0 -4.59297,-4.594889 -4.59297,-12.043952 0,-16.638841 81.12089,-81.44067 162.96899,-165.26234 244.54279,-246.25053 l 5.6861,25.42748"
       style="display:inline;fill:#bfc6e1;fill-opacity:1;fill-rule:nonzero;stroke:none;stroke-width:0.966531"
       id="path249-2-5"
       sodipodi:nodetypes="cccccc" />
    <path
       d="m 917.20856,5.3004852 -6.76862,6.7686178 c -4.59393,4.594898 -12.04395,4.594898 -16.63884,0 -4.59296,-4.5948888 -4.59296,-12.0439428 0,-16.638842 81.12088,-81.440653 255.9963,-252.087891 337.5702,-333.076081 l -1.1359,33.48984"
       style="display:inline;fill:#bfc6e1;fill-opacity:1;fill-rule:nonzero;stroke:none;stroke-width:0.966531"
       id="path249-2-5-8"
       sodipodi:nodetypes="cccccc" />
    <path
       d="M 181.81661,432.76726 97.32376,517.26011"
       style="display:inline;fill:none;stroke:#ffffff;stroke-width:3.80639;stroke-linecap:round;stroke-linejoin:miter;stroke-miterlimit:10;stroke-dasharray:none;stroke-opacity:1"
       id="path213" />
    <path
       d="m 872.74244,-157.3749 c 0,-6.76728 5.48569,-12.25296 12.25296,-12.25296 6.76798,0 12.25366,5.48568 12.25366,12.25296 0,6.76729 -5.48568,12.25297 -12.25366,12.25297 -6.76727,0 -12.25296,-5.48568 -12.25296,-12.25297"
       style="display:inline;fill:#a5e4dc;fill-opacity:1;fill-rule:nonzero;stroke:none;stroke-width:0.697658"
       id="path45-4" />
    <path
       style="fill:#fa9191;fill-opacity:1;stroke:none;stroke-width:0.818686;stroke-opacity:1"
       d="m 224.83744,291.82336 c -2.24311,2.24312 -2.78353,3.42303 -2.78353,6.07734 0,6.69549 6.73289,10.92766 12.78969,8.03937 8.48903,-4.04814 5.50129,-16.90024 -3.92882,-16.90024 -2.65431,0 -3.83423,0.54042 -6.07734,2.78353 z"
       id="path7019" />
    <path
       style="display:inline;fill:#fa9191;fill-opacity:1;stroke:none;stroke-width:1.24574;stroke-opacity:1"
       d="m 68.886668,27.29516 c -3.4132,3.413198 -4.23552,5.208597 -4.23552,9.247483 0,10.18808 10.24499,16.62791 19.46123,12.23301 12.9172,-6.15981 8.37095,-25.716017 -5.97823,-25.716017 -4.03888,0 -5.8343,0.822326 -9.24748,4.235524 z"
       id="path7019-9" />
    <path
       style="display:inline;fill:#fa9191;fill-opacity:1;stroke:none;stroke-width:0.773304;stroke-opacity:1"
       d="m 951.5802,410.79658 c -2.11878,2.11877 -2.62924,3.23328 -2.62924,5.74045 0,6.32435 6.35967,10.32193 12.08073,7.59375 8.01847,-3.82375 5.19635,-15.96344 -3.71104,-15.96344 -2.50717,0 -3.62169,0.51046 -5.74045,2.62924 z"
       id="path7019-9-1" />
  </g>
</svg>
