<?xml version="1.0" encoding="UTF-8" standalone="no"?>
<!-- Created with Inkscape (http://www.inkscape.org/) -->

<svg
   version="1.1"
   id="svg9"
   width="1000"
   height="2405.312"
   viewBox="0 0 1000 2405.312"
   sodipodi:docname="background_home.svg"
   inkscape:version="1.2.1 (9c6d41e410, 2022-07-14)"
   xmlns:inkscape="http://www.inkscape.org/namespaces/inkscape"
   xmlns:sodipodi="http://sodipodi.sourceforge.net/DTD/sodipodi-0.dtd"
   xmlns="http://www.w3.org/2000/svg"
   xmlns:svg="http://www.w3.org/2000/svg">
  <defs
     id="defs13">
    <clipPath
       clipPathUnits="userSpaceOnUse"
       id="clipPath628">
      <g
         id="g632"
         transform="translate(-694.4069,-456.5791)">
        <path
           d="M 0,0 H 750 V 500 H 0 Z"
           id="path630" />
      </g>
    </clipPath>
    <clipPath
       clipPathUnits="userSpaceOnUse"
       id="clipPath634">
      <g
         id="g638"
         transform="translate(-390.7076,-43.7715)">
        <path
           d="M 0,0 H 750 V 500 H 0 Z"
           id="path636" />
      </g>
    </clipPath>
    <clipPath
       clipPathUnits="userSpaceOnUse"
       id="clipPath640">
      <g
         id="g644"
         transform="translate(-222.4977,-407.4819)">
        <path
           d="M 0,0 H 750 V 500 H 0 Z"
           id="path642" />
      </g>
    </clipPath>
    <clipPath
       clipPathUnits="userSpaceOnUse"
       id="clipPath646">
      <g
         id="g650"
         transform="translate(-465.0094,-540.4443)">
        <path
           d="M 0,0 H 750 V 500 H 0 Z"
           id="path648" />
      </g>
    </clipPath>
    <clipPath
       clipPathUnits="userSpaceOnUse"
       id="clipPath664">
      <g
         id="g668"
         transform="translate(-630.9108,-509.2036)">
        <path
           d="M 0,0 H 750 V 500 H 0 Z"
           id="path666" />
      </g>
    </clipPath>
    <clipPath
       clipPathUnits="userSpaceOnUse"
       id="clipPath682">
      <g
         id="g686"
         transform="translate(-94.1871,-107.9287)">
        <path
           d="M 0,0 H 750 V 500 H 0 Z"
           id="path684" />
      </g>
    </clipPath>
    <clipPath
       clipPathUnits="userSpaceOnUse"
       id="clipPath688">
      <g
         id="g692"
         transform="translate(-729.0963,-374.7886)">
        <path
           d="M 0,0 H 750 V 500 H 0 Z"
           id="path690" />
      </g>
    </clipPath>
    <clipPath
       clipPathUnits="userSpaceOnUse"
       id="clipPath694">
      <g
         id="g698"
         transform="translate(-464.4146,-379.812)">
        <path
           d="M 0,0 H 750 V 500 H 0 Z"
           id="path696" />
      </g>
    </clipPath>
    <clipPath
       clipPathUnits="userSpaceOnUse"
       id="clipPath700">
      <g
         id="g704"
         transform="translate(-179.3443,-299.7837)">
        <path
           d="M 0,0 H 750 V 500 H 0 Z"
           id="path702" />
      </g>
    </clipPath>
    <clipPath
       clipPathUnits="userSpaceOnUse"
       id="clipPath706">
      <g
         id="g710"
         transform="translate(76.9506,-56.0859)">
        <path
           d="M 0,0 H 750 V 500 H 0 Z"
           id="path708" />
      </g>
    </clipPath>
    <clipPath
       clipPathUnits="userSpaceOnUse"
       id="clipPath718">
      <g
         id="g722"
         transform="translate(13.474,-82.958)">
        <path
           d="M 0,0 H 750 V 500 H 0 Z"
           id="path720" />
      </g>
    </clipPath>
    <clipPath
       clipPathUnits="userSpaceOnUse"
       id="clipPath724">
      <g
         id="g728"
         transform="translate(-418.6305,-442.3745)">
        <path
           d="M 0,0 H 750 V 500 H 0 Z"
           id="path726" />
      </g>
    </clipPath>
    <clipPath
       clipPathUnits="userSpaceOnUse"
       id="clipPath730">
      <g
         id="g734"
         transform="translate(-645.901,-364.375)">
        <path
           d="M 0,0 H 750 V 500 H 0 Z"
           id="path732" />
      </g>
    </clipPath>
    <clipPath
       clipPathUnits="userSpaceOnUse"
       id="clipPath736">
      <g
         id="g740"
         transform="translate(-660.2252,-315.626)">
        <path
           d="M 0,0 H 750 V 500 H 0 Z"
           id="path738" />
      </g>
    </clipPath>
    <clipPath
       clipPathUnits="userSpaceOnUse"
       id="clipPath742">
      <g
         id="g746"
         transform="translate(-240.2789,-95.5781)">
        <path
           d="M 0,0 H 750 V 500 H 0 Z"
           id="path744" />
      </g>
    </clipPath>
    <clipPath
       clipPathUnits="userSpaceOnUse"
       id="clipPath748">
      <g
         id="g752"
         transform="translate(-514.3385,-317.8701)">
        <path
           d="M 0,0 H 750 V 500 H 0 Z"
           id="path750" />
      </g>
    </clipPath>
    <clipPath
       clipPathUnits="userSpaceOnUse"
       id="clipPath754">
      <g
         id="g758"
         transform="translate(-514.3385,-334.3589)">
        <path
           d="M 0,0 H 750 V 500 H 0 Z"
           id="path756" />
      </g>
    </clipPath>
    <clipPath
       clipPathUnits="userSpaceOnUse"
       id="clipPath760">
      <g
         id="g764"
         transform="translate(-498.2789,-317.8701)">
        <path
           d="M 0,0 H 750 V 500 H 0 Z"
           id="path762" />
      </g>
    </clipPath>
    <clipPath
       clipPathUnits="userSpaceOnUse"
       id="clipPath766">
      <g
         id="g770"
         transform="translate(-498.2789,-334.3589)">
        <path
           d="M 0,0 H 750 V 500 H 0 Z"
           id="path768" />
      </g>
    </clipPath>
    <clipPath
       clipPathUnits="userSpaceOnUse"
       id="clipPath772">
      <g
         id="g776"
         transform="translate(-65.7506,-396.0742)">
        <path
           d="M 0,0 H 750 V 500 H 0 Z"
           id="path774" />
      </g>
    </clipPath>
    <clipPath
       clipPathUnits="userSpaceOnUse"
       id="clipPath778">
      <g
         id="g782"
         transform="translate(-419.4371,-387.9541)">
        <path
           d="M 0,0 H 750 V 500 H 0 Z"
           id="path780" />
      </g>
    </clipPath>
    <clipPath
       clipPathUnits="userSpaceOnUse"
       id="clipPath784">
      <g
         id="g788"
         transform="translate(-219.984,-305.8091)">
        <path
           d="M 0,0 H 750 V 500 H 0 Z"
           id="path786" />
      </g>
    </clipPath>
    <clipPath
       clipPathUnits="userSpaceOnUse"
       id="clipPath790">
      <g
         id="g794"
         transform="translate(-207.0172,-305.8091)">
        <path
           d="M 0,0 H 750 V 500 H 0 Z"
           id="path792" />
      </g>
    </clipPath>
    <clipPath
       clipPathUnits="userSpaceOnUse"
       id="clipPath796">
      <g
         id="g800"
         transform="translate(-604.9899,-90.5146)">
        <path
           d="M 0,0 H 750 V 500 H 0 Z"
           id="path798" />
      </g>
    </clipPath>
    <clipPath
       clipPathUnits="userSpaceOnUse"
       id="clipPath802">
      <g
         id="g806"
         transform="translate(-585.0553,-90.5146)">
        <path
           d="M 0,0 H 750 V 500 H 0 Z"
           id="path804" />
      </g>
    </clipPath>
    <clipPath
       clipPathUnits="userSpaceOnUse"
       id="clipPath814">
      <g
         id="g818"
         transform="translate(-21.2496,-297.5498)">
        <path
           d="M 0,0 H 750 V 500 H 0 Z"
           id="path816" />
      </g>
    </clipPath>
    <clipPath
       clipPathUnits="userSpaceOnUse"
       id="clipPath820">
      <g
         id="g824"
         transform="translate(-242.6793,-185.0625)">
        <path
           d="M 0,0 H 750 V 500 H 0 Z"
           id="path822" />
      </g>
    </clipPath>
    <clipPath
       clipPathUnits="userSpaceOnUse"
       id="clipPath826">
      <g
         id="g830"
         transform="translate(-224.6559,-167.0381)">
        <path
           d="M 0,0 H 750 V 500 H 0 Z"
           id="path828" />
      </g>
    </clipPath>
    <clipPath
       clipPathUnits="userSpaceOnUse"
       id="clipPath832">
      <g
         id="g836"
         transform="translate(-710.525,-205.4668)">
        <path
           d="M 0,0 H 750 V 500 H 0 Z"
           id="path834" />
      </g>
    </clipPath>
    <clipPath
       clipPathUnits="userSpaceOnUse"
       id="clipPath838">
      <g
         id="g842"
         transform="translate(-232.1627,-389.1636)">
        <path
           d="M 0,0 H 750 V 500 H 0 Z"
           id="path840" />
      </g>
    </clipPath>
    <clipPath
       clipPathUnits="userSpaceOnUse"
       id="clipPath844">
      <g
         id="g848"
         transform="translate(-698.4459,0.1494)">
        <path
           d="M 0,0 H 750 V 500 H 0 Z"
           id="path846" />
      </g>
    </clipPath>
    <clipPath
       clipPathUnits="userSpaceOnUse"
       id="clipPath850">
      <g
         id="g854"
         transform="translate(-189.4225,-499.792)">
        <path
           d="M 0,0 H 750 V 500 H 0 Z"
           id="path852" />
      </g>
    </clipPath>
    <clipPath
       clipPathUnits="userSpaceOnUse"
       id="clipPath856">
      <g
         id="g860"
         transform="translate(-249.2428,-499.0806)">
        <path
           d="M 0,0 H 750 V 500 H 0 Z"
           id="path858" />
      </g>
    </clipPath>
    <clipPath
       clipPathUnits="userSpaceOnUse"
       id="clipPath878">
      <g
         id="g884">
        <g
           id="g882">
          <path
             d="M 0,0 H 750 V 500 H 0 Z"
             id="path880" />
        </g>
      </g>
    </clipPath>
    <clipPath
       clipPathUnits="userSpaceOnUse"
       id="clipPath1133">
      <g
         id="g1139">
        <g
           id="g1137">
          <path
             d="M 0,0 H 750 V 500 H 0 Z"
             id="path1135" />
        </g>
      </g>
    </clipPath>
    <clipPath
       clipPathUnits="userSpaceOnUse"
       id="clipPath1170">
      <g
         id="g1176">
        <g
           id="g1174">
          <path
             d="M 0,0 H 750 V 500 H 0 Z"
             id="path1172" />
        </g>
      </g>
    </clipPath>
    <clipPath
       clipPathUnits="userSpaceOnUse"
       id="clipPath1422">
      <g
         id="g1428">
        <g
           id="g1426">
          <path
             d="M 0,0 H 750 V 500 H 0 Z"
             id="path1424" />
        </g>
      </g>
    </clipPath>
    <clipPath
       clipPathUnits="userSpaceOnUse"
       id="clipPath1459">
      <g
         id="g1465">
        <g
           id="g1463">
          <path
             d="M 0,0 H 750 V 500 H 0 Z"
             id="path1461" />
        </g>
      </g>
    </clipPath>
    <clipPath
       clipPathUnits="userSpaceOnUse"
       id="clipPath1496">
      <g
         id="g1502">
        <g
           id="g1500">
          <path
             d="M 0,0 H 750 V 500 H 0 Z"
             id="path1498" />
        </g>
      </g>
    </clipPath>
  </defs>
  <sodipodi:namedview
     id="namedview11"
     pagecolor="#ffffff"
     bordercolor="#000000"
     borderopacity="0.25"
     inkscape:showpageshadow="2"
     inkscape:pageopacity="0.0"
     inkscape:pagecheckerboard="0"
     inkscape:deskcolor="#d1d1d1"
     showgrid="false"
     inkscape:zoom="1.653"
     inkscape:cx="382.94011"
     inkscape:cy="2244.4041"
     inkscape:window-width="2560"
     inkscape:window-height="1334"
     inkscape:window-x="-11"
     inkscape:window-y="-11"
     inkscape:window-maximized="1"
     inkscape:current-layer="g17"
     showguides="true">
    <inkscape:page
       x="0"
       y="0"
       id="page15"
       width="1000"
       height="2405.312" />
    <sodipodi:guide
       position="-462.18996,-2619.8924"
       orientation="0,-1"
       id="guide5867"
       inkscape:locked="false" />
    <sodipodi:guide
       position="44.767091,-2200.6546"
       orientation="0,-1"
       id="guide5869"
       inkscape:locked="false" />
    <sodipodi:guide
       position="376.8905,-1782.6268"
       orientation="0,-1"
       id="guide5871"
       inkscape:locked="false" />
    <sodipodi:guide
       position="82.274654,-1364.599"
       orientation="0,-1"
       id="guide5886"
       inkscape:locked="false" />
    <sodipodi:guide
       position="404.7187,-945.96618"
       orientation="0,-1"
       id="guide5888"
       inkscape:locked="false" />
    <sodipodi:guide
       position="164.5493,0.59331589"
       orientation="0,-1"
       id="guide11910"
       inkscape:locked="false" />
    <sodipodi:guide
       position="-280.09679,481.53705"
       orientation="0,-1"
       id="guide11912"
       inkscape:locked="false" />
    <sodipodi:guide
       position="-262.55293,960.66591"
       orientation="0,-1"
       id="guide11936"
       inkscape:locked="false" />
    <sodipodi:guide
       position="-287.96128,1444.0295"
       orientation="0,-1"
       id="guide11951"
       inkscape:locked="false" />
    <sodipodi:guide
       position="-332.72837,1926.1831"
       orientation="0,-1"
       id="guide11966"
       inkscape:locked="false" />
    <sodipodi:guide
       position="-284.93648,2405.917"
       orientation="0,-1"
       id="guide11981"
       inkscape:locked="false" />
  </sodipodi:namedview>
  <g
     id="g17"
     inkscape:groupmode="layer"
     inkscape:label="Page 1"
     transform="matrix(1.3333333,0,0,-1.3333333,0,666.66667)"
     style="display:inline">
    <path
       d="M -7.8276739,-18.427153 75.104018,64.060099 c 18.59261,18.492948 48.737152,18.492948 67.330782,0 v 0 c 18.59157,-18.49298 18.59157,-48.475975 0,-66.9689379 l -37.771,-37.5685821 c -8.163674,-8.118909 -8.163674,-21.28346 0,-29.401365 8.16265,-8.118906 21.39612,-8.118906 29.55876,0 l 8.21224,8.166208 c 16.77857,16.689653 43.98202,16.689653 60.76058,0 16.77857,-16.688644 16.77857,-43.746322 0,-60.434962 L 169.53,-155.6325 c -3.62705,-3.60865 -3.62705,-9.45833 0,-13.06696 3.62807,-3.60861 9.51027,-3.60861 13.13734,0 l 82.11016,81.670128 c 14.5123,14.43351 38.04013,14.43351 52.5514,0 14.51128,-14.434508 14.51128,-37.836258 0,-52.268748 l -22.1701,-22.05129 c -3.17481,-3.15779 -3.17481,-8.27689 0,-11.43469 3.1738,-3.15581 8.3205,-3.15581 11.49532,0 l 1.83831,1.82946 c 38.89098,38.68257 103.06943,39.76843 140.83716,0 66.41609,-69.93441 -13.36929,-150.6696 -13.36929,-150.6696 l -504.366433,-499.22417 -59.301707,612.12996 c 0,0 127.27086964,182.94117 119.8801661,190.291257"
       style="fill:#c0f0e6;fill-opacity:1;fill-rule:nonzero;stroke:none;stroke-width:1.00902"
       id="path61-4"
       sodipodi:nodetypes="csssccccccsccccccscccscccc" />
    <path
       d="m 250.6255,501.67644 26.223,-26.223 c 18.181,-18.182 47.661,-18.181 65.841,0.003 l 15.021,15.023 c 3.171,3.171 8.311,3.171 11.481,0 l 0.149,-0.148 c 3.297,-3.297 3.302,-8.591 0.033,-11.858 -5.035,-5.034 -39.839,-39.837 -47.669,-47.666 -16.584,-16.583 -16.585,-43.471 -10e-4,-60.055 16.583,-16.583 43.471,-16.583 60.054,0 l 145.482,145.483 32.033,-4.365 -52.96,-52.96 c -23.117,-23.117 -23.117,-60.596 0,-83.713 23.116,-23.116 60.595,-23.116 83.711,0 l 80.983,80.983 c 3.518,3.517 9.222,3.517 12.739,0 3.518,-3.518 3.518,-9.221 0,-12.739 l -119.927,-119.927 c -13.066,-13.066 -13.066,-34.25 0,-47.316 13.066,-13.065 34.249,-13.065 47.316,0 l 83.075,83.076 c 3.77,3.769 9.88,3.769 13.648,0 3.77,-3.769 3.77,-9.88 0,-13.649 l -1.454,-1.454 c -27.589,-27.59 -27.589,-72.322 0,-99.912 l 61.96401,-61.963 v 359.383"
       style="display:inline;fill:#a5e4dc;fill-opacity:1;fill-rule:nonzero;stroke:none"
       id="path29" />
    <path
       d="m 422.5966,-394.77718 c -31.39811,0 -56.84217,25.30567 -56.84217,56.52345 0,31.21674 25.44406,56.52343 56.84217,56.52343 31.38595,0 56.82799,-25.30669 56.82799,-56.52343 0,-31.21778 -25.44204,-56.52345 -56.82799,-56.52345 m 0,126.92089 c -39.02859,0 -70.7909,-31.57803 -70.7909,-70.39744 0,-38.82043 31.76231,-70.41154 70.7909,-70.41154 39.02959,0 70.77773,31.59111 70.77773,70.41154 0,38.81941 -31.74814,70.39744 -70.77773,70.39744"
       style="fill:#a5e4dc;fill-opacity:1;fill-rule:nonzero;stroke:none;stroke-width:1.00902"
       id="path245-5" />
    <path
       d="m 95.735107,-146.58051 c 4.379793,4.41065 11.525653,4.42676 15.932753,0.0442 4.38688,-4.36437 4.38688,-11.43973 0,-15.80309 l -17.000126,-16.91005 c -2.201536,-2.18873 -2.201536,-5.73798 0,-7.92771 2.200502,-2.18873 5.768886,-2.18873 7.970426,0 l 7.08516,7.04718 c 4.80876,4.78401 12.6072,4.78401 17.41697,0 4.80775,-4.78399 4.80775,-12.53962 0,-17.32362 -84.914523,-84.79239 -170.590267,-168.83529 -255.97891,-253.15663 l -0.10943,80.71334"
       style="fill:#a5e4dc;fill-opacity:1;fill-rule:nonzero;stroke:none;stroke-width:1.00902"
       id="path249-2"
       sodipodi:nodetypes="ccccscccccc" />
    <path
       d="m 258.12477,-99.771322 c 0,-4.332158 -3.53094,-7.843178 -7.88645,-7.843178 -4.35552,0 -7.88545,3.51102 -7.88545,7.843178 0,4.33217 3.52993,7.84419 7.88545,7.84419 4.35551,0 7.88645,-3.51202 7.88645,-7.84419"
       style="display:inline;fill:#fa9191;fill-opacity:1;fill-rule:nonzero;stroke:none;stroke-width:1.00902"
       id="path201" />
    <path
       d="m 664.84087,317.9508 c 0,-4.305 -3.489,-7.794 -7.794,-7.794 -4.305,0 -7.794,3.489 -7.794,7.794 0,4.305 3.489,7.794 7.794,7.794 4.305,0 7.794,-3.489 7.794,-7.794"
       style="display:inline;fill:#fa9191;fill-opacity:1;fill-rule:nonzero;stroke:none"
       id="path205" />
    <path
       d="m 650.51668,366.6998 127.182,127.182"
       style="display:inline;fill:none;stroke:#ffffff;stroke-width:3;stroke-linecap:round;stroke-linejoin:miter;stroke-miterlimit:10;stroke-dasharray:none;stroke-opacity:1"
       id="path209" />
    <path
       d="m 423.24618,444.6993 66.593,66.593"
       style="display:inline;fill:none;stroke:#ffffff;stroke-width:3;stroke-linecap:round;stroke-linejoin:miter;stroke-miterlimit:10;stroke-dasharray:none;stroke-opacity:1"
       id="path213" />
    <path
       d="M -28.318156,-130.42105 102.45632,-0.34740293"
       style="display:inline;fill:none;stroke:#ffffff;stroke-width:3.02707;stroke-linecap:round;stroke-linejoin:miter;stroke-miterlimit:10;stroke-dasharray:none;stroke-opacity:1"
       id="path217" />
    <path
       d="M -91.384615,-159.22045 39.389875,-29.146798"
       style="display:inline;fill:none;stroke:#ffffff;stroke-width:3.02707;stroke-linecap:round;stroke-linejoin:miter;stroke-miterlimit:10;stroke-dasharray:none;stroke-opacity:1"
       id="path217-1" />
    <path
       d="m 134.94587,-276.69522 117.2142,116.58506"
       style="display:inline;fill:none;stroke:#ffffff;stroke-width:3.02707;stroke-linecap:round;stroke-linejoin:miter;stroke-miterlimit:10;stroke-dasharray:none;stroke-opacity:1"
       id="path221-5" />
    <path
       d="m 190.63261,100.55722 c 0,-8.751875 -7.13374,-15.847386 -15.93276,-15.847386 -8.79904,0 -15.93175,7.095511 -15.93175,15.847386 0,8.75187 7.13271,15.84736 15.93175,15.84736 8.79902,0 15.93276,-7.09549 15.93276,-15.84736"
       style="display:inline;fill:#c0f0e6;fill-opacity:1;fill-rule:nonzero;stroke:none;stroke-width:1.00902"
       id="path229" />
    <path
       d="m 469.03028,382.1368 c 0,-4.598 -3.727,-8.324 -8.324,-8.324 -4.597,0 -8.324,3.726 -8.324,8.324 0,4.597 3.727,8.324 8.324,8.324 4.597,0 8.324,-3.727 8.324,-8.324"
       style="display:inline;fill:#a5e4dc;fill-opacity:1;fill-rule:nonzero;stroke:none"
       id="path233" />
    <path
       d="m 733.25818,375.75224 c 0,-5.34871 -4.33645,-9.68516 -9.68516,-9.68516 -5.34871,0 -9.684,4.33645 -9.684,9.68516 0,5.34871 4.33529,9.68516 9.684,9.68516 5.34871,0 9.68516,-4.33645 9.68516,-9.68516"
       style="display:inline;fill:#ffffff;fill-opacity:1;fill-rule:nonzero;stroke:none;stroke-width:1.16352"
       id="path237" />
    <path
       d="m 101.87958,-89.279902 c 0,-11.368288 -9.264445,-20.584078 -20.693976,-20.584078 -11.42954,0 -20.693971,9.21579 -20.693971,20.584078 0,11.36829 9.264431,20.583069 20.693971,20.583069 11.429531,0 20.693976,-9.214779 20.693976,-20.583069"
       style="display:inline;fill:#ffffff;fill-opacity:1;fill-rule:nonzero;stroke:none;stroke-width:1.00902"
       id="path241" />
    <path
       d="m 635.52648,511.52839 -60.896,-60.895 c -5.651,-5.651 -5.651,-14.814 0,-20.466 5.652,-5.652 14.815,-5.652 20.466,0 l 32.545,32.545 c 1.946,1.945 5.1,1.945 7.046,0 1.945,-1.946 1.945,-5.101 0,-7.046 l -11.072,-11.072 c -3.058,-3.058 -3.058,-8.015 0,-11.072 3.057,-3.057 8.015,-3.057 11.072,0 l 29.839,29.839 c 6.691,6.692 16.752,7.961 24.722,3.808 1.864,-0.973 3.615,-2.242 5.18,-3.808 l 0.819,-0.817 58.043,58.043 c 0,0 -117.764,-8.388 -117.764,-9.059"
       style="display:inline;fill:#c0f0e6;fill-opacity:1;fill-rule:nonzero;stroke:none"
       id="path253" />
    <path
       d="m 469.62508,542.76909 -117.183,-117.183"
       style="display:inline;fill:none;stroke:#fa9191;stroke-width:3;stroke-linecap:round;stroke-linejoin:miter;stroke-miterlimit:10;stroke-dasharray:none;stroke-opacity:1"
       id="path265" />
    <path
       d="m 404.47567,-157.07048 28.54297,28.38902"
       style="display:inline;fill:#ffb2a6;fill-opacity:1;stroke:#fa9191;stroke-width:3.02707;stroke-linecap:round;stroke-linejoin:miter;stroke-miterlimit:10;stroke-dasharray:none;stroke-opacity:1"
       id="path273" />
    <path
       d="m 699.02258,458.9039 -4.594,4.458 c 0,0 49.268,55.729 50.424,56.885 1.156,1.156 35.495,-3.741 35.495,-3.741 l -54.74,-57.12 c -7.193,-7.506 -19.123,-7.723 -26.585,-0.482"
       style="display:inline;fill:#c0f0e6;fill-opacity:1;fill-rule:nonzero;stroke:none"
       id="path277" />
    <path
       d="m 190.8052,502.38783 c 0,-35.861 -29.071,-64.932 -64.932,-64.932 -35.861001,0 -64.932001,29.071 -64.932001,64.932 0,35.861 29.071,64.932 64.932001,64.932 35.861,0 64.932,-29.071 64.932,-64.932"
       style="display:inline;fill:#ffd31d;fill-opacity:1;fill-rule:nonzero;stroke:none"
       id="path33" />
    <path
       d="m 699.8286,2.4464368 c 0,-22.5009998 -18.241,-40.7429998 -40.743,-40.7429998 -22.502,0 -40.743,18.242 -40.743,40.7429998 0,22.5020002 18.241,40.7430022 40.743,40.7430022 22.502,0 40.743,-18.241002 40.743,-40.7430022"
       style="display:inline;fill:#ffd31d;fill-opacity:1;fill-rule:nonzero;stroke:none"
       id="path37" />
    <path
       d="m 233.5454,391.75944 c -16.553,0 -29.966,13.413 -29.966,29.958 0,16.546 13.413,29.959 29.966,29.959 16.545,0 29.958,-13.413 29.958,-29.959 0,-16.545 -13.413,-29.958 -29.958,-29.958 m 0,67.271 c -20.575,0 -37.319,-16.737 -37.319,-37.313 0,-20.575 16.744,-37.319 37.319,-37.319 20.575,0 37.312,16.744 37.312,37.319 0,20.576 -16.737,37.313 -37.312,37.313"
       style="display:inline;fill:#a5e4dc;fill-opacity:1;fill-rule:nonzero;stroke:none"
       id="path41" />
    <path
       d="m 711.9077,208.06264 c 0,-9.7 -7.863,-17.563 -17.563,-17.563 -9.701,0 -17.564,7.863 -17.564,17.563 0,9.7 7.863,17.563 17.564,17.563 9.7,0 17.563,-7.863 17.563,-17.563"
       style="display:inline;fill:#ffd31d;fill-opacity:1;fill-rule:nonzero;stroke:none"
       id="path45" />
    <path
       d="m 507.713,-269.26359 c 0,-4.67834 -3.8132,-8.47111 -8.51677,-8.47111 -4.70354,0 -8.51674,3.79277 -8.51674,8.47111 0,4.67834 3.8132,8.47212 8.51674,8.47212 4.70357,0 8.51677,-3.79378 8.51677,-8.47212"
       style="display:inline;fill:#ffd31d;fill-opacity:1;fill-rule:nonzero;stroke:none;stroke-width:1.00902"
       id="path49" />
    <path
       d="m 69.955825,-792.59394 c 0,-5.07793 -4.138912,-9.19468 -9.24424,-9.19468 -5.105295,0 -9.244211,4.11675 -9.244211,9.19468 0,5.07794 4.138916,9.19579 9.244211,9.19579 5.105328,0 9.24424,-4.11785 9.24424,-9.19579"
       style="display:inline;fill:#ffd31d;fill-opacity:1;fill-rule:nonzero;stroke:none;stroke-width:1.09521"
       id="path49-8" />
    <path
       d="m 22.632299,300.14564 c 0,-9.7 -7.863,-17.564 -17.5629999,-17.564 -9.7010001,0 -17.5640001,7.864 -17.5640001,17.564 0,9.7 7.863,17.563 17.5640001,17.563 9.6999999,0 17.5629999,-7.863 17.5629999,-17.563"
       style="display:inline;fill:#ffd31d;fill-opacity:1;fill-rule:nonzero;stroke:none"
       id="path57" />
    <path
       d="m 586.438,93.110439 v 0 c 1.759,1.759 4.611,1.759 6.37,0 l 13.565,-13.564 c 1.759,-1.759 1.759,-4.612 0,-6.372 -1.759,-1.758 -4.612,-1.758 -6.372,0 l -13.563,13.565 c -1.76,1.759 -1.76,4.611 0,6.371"
       style="display:inline;fill:#fa9191;fill-opacity:1;fill-rule:nonzero;stroke:none"
       id="path65" />
    <path
       d="m 606.3726,93.110439 v 0 c 1.76,-1.76 1.76,-4.612 0,-6.371 l -13.564,-13.565 c -1.759,-1.758 -4.612,-1.758 -6.371,0 -1.759,1.76 -1.759,4.613 0,6.372 l 13.564,13.564 c 1.76,1.759 4.612,1.759 6.371,0"
       style="display:inline;fill:#fa9191;fill-opacity:1;fill-rule:nonzero;stroke:none"
       id="path69" />
    <path
       d="m 59.579569,179.54831 v 0 c 1.145,1.145 3,1.145 4.144,0 l 8.823,-8.822 c 1.143,-1.145 1.143,-3 0,-4.144 -1.145,-1.144 -3,-1.144 -4.145,0 l -8.822,8.822 c -1.145,1.144 -1.145,3 0,4.144"
       style="display:inline;fill:#fa9191;fill-opacity:1;fill-rule:nonzero;stroke:none"
       id="path73" />
    <path
       d="m 227.11338,409.8067 -29.39,-29.39"
       style="display:inline;fill:#ffb2a6;fill-opacity:1;stroke:#fa9191;stroke-width:3;stroke-linecap:round;stroke-linejoin:miter;stroke-miterlimit:10;stroke-dasharray:none;stroke-opacity:1"
       id="path269" />
    <path
       d="m 72.546369,179.54831 v 0 c 1.144,-1.144 1.144,-3 0,-4.144 l -8.823,-8.822 c -1.144,-1.144 -2.999,-1.144 -4.144,0 -1.144,1.144 -1.144,2.999 0,4.144 l 8.822,8.822 c 1.145,1.145 3,1.145 4.145,0"
       style="display:inline;fill:#fa9191;fill-opacity:1;fill-rule:nonzero;stroke:none"
       id="path77" />
    <path
       d="m 420.8198,390.54994 c 0,-10.54 -8.544,-19.083 -19.084,-19.083 -10.539,0 -19.083,8.543 -19.083,19.083 0,10.54 8.544,19.083 19.083,19.083 10.54,0 19.084,-8.543 19.084,-19.083"
       style="display:inline;fill:#fa9191;fill-opacity:1;fill-rule:nonzero;stroke:none"
       id="path81" />
    <path
       d="m 67.133289,398.67004 c 0,-5.85 -4.742,-10.592 -10.591,-10.592 -5.849,0 -10.592,4.742 -10.592,10.592 0,5.849 4.743,10.591 10.592,10.591 5.849,0 10.591,-4.742 10.591,-10.591"
       style="display:inline;fill:#fa9191;fill-opacity:1;fill-rule:nonzero;stroke:none"
       id="path85" />
    <path
       d="m 499.6616,336.95474 c 0,-1.743 -1.412,-3.156 -3.155,-3.156 -1.743,0 -3.157,1.413 -3.157,3.156 0,1.743 1.414,3.156 3.157,3.156 1.743,0 3.155,-1.413 3.155,-3.156"
       style="display:inline;fill:#fa9191;fill-opacity:1;fill-rule:nonzero;stroke:none"
       id="path89" />
    <path
       d="m 499.6616,320.46594 c 0,-1.743 -1.412,-3.156 -3.155,-3.156 -1.743,0 -3.157,1.413 -3.157,3.156 0,1.743 1.414,3.156 3.157,3.156 1.743,0 3.155,-1.413 3.155,-3.156"
       style="display:inline;fill:#fa9191;fill-opacity:1;fill-rule:nonzero;stroke:none"
       id="path93" />
    <path
       d="m 515.7212,336.63391 c 0,-1.743 -1.413,-3.156 -3.156,-3.156 -1.743,0 -3.157,1.413 -3.157,3.156 0,1.743 1.414,3.156 3.157,3.156 1.743,0 3.156,-1.413 3.156,-3.156"
       style="display:inline;fill:#fa9191;fill-opacity:1;fill-rule:nonzero;stroke:none"
       id="path97" />
    <path
       d="m 515.7212,320.46594 c 0,-1.743 -1.413,-3.156 -3.156,-3.156 -1.743,0 -3.157,1.413 -3.157,3.156 0,1.743 1.414,3.156 3.157,3.156 1.743,0 3.156,-1.413 3.156,-3.156"
       style="display:inline;fill:#fa9191;fill-opacity:1;fill-rule:nonzero;stroke:none"
       id="path101" />
    <path
       d="m 191.2968,-451.27112 7.08518,7.04719 c 4.80876,4.78401 12.60719,4.78401 17.41696,0 4.80774,-4.78399 4.80774,-12.53964 0,-17.32362 -84.9145,-84.79243 -170.590266,-172.06386 -255.978909,-256.38519 l -5.952057,26.47396"
       style="display:inline;fill:#a5e4dc;fill-opacity:1;fill-rule:nonzero;stroke:none;stroke-width:1.00902"
       id="path249-2-5"
       sodipodi:nodetypes="cccccc" />
    <path
       d="m 281.20906,-310.65495 7.08515,7.04719 c 4.80875,4.78401 12.60719,4.78401 17.41696,0 4.80775,-4.78399 4.80775,-12.53962 0,-17.32364 -84.91451,-84.79239 -267.968129,-262.46278 -353.356775,-346.78412 l 1.188985,34.86816"
       style="display:inline;fill:#a5e4dc;fill-opacity:1;fill-rule:nonzero;stroke:none;stroke-width:1.00902"
       id="path249-2-5-8"
       sodipodi:nodetypes="cccccc" />
    <path
       d="m 680.51632,-481.67669 c 0,-7.97809 -6.50204,-14.44531 -14.52312,-14.44531 -8.02191,0 -14.52396,6.46722 -14.52396,14.44531 0,7.97809 6.50205,14.44528 14.52396,14.44528 8.02108,0 14.52312,-6.46719 14.52312,-14.44528"
       style="display:inline;fill:#ffd047;fill-opacity:1;fill-rule:nonzero;stroke:none;stroke-width:0.824697"
       id="path45-4" />
    <path
       d="m 415.71637,-1244.8909 c 0,-8.3158 -6.74094,-15.0568 -15.05675,-15.0568 -8.31666,0 -15.05761,6.741 -15.05761,15.0568 0,8.3158 6.74095,15.0568 15.05761,15.0568 8.31581,0 15.05675,-6.741 15.05675,-15.0568"
       style="display:inline;fill:#ffd047;fill-opacity:1;fill-rule:nonzero;stroke:none;stroke-width:0.857301"
       id="path45-4-0" />
    <path
       d="m 693.46535,-988.21935 c -39.31626,38.09809 -90.21276,-11.07848 -52.01617,-52.01545 l 40.21342,-45.7302 c 0,0 6.3161,-10.2739 0.27933,-16.5701 -7.34296,-7.6584 -16.93791,0.3471 -16.93791,0.3471 -25.07563,29.5255 -52.55305,56.7032 -79.91261,84.0627 -18.06849,18.0685 -47.36244,18.0685 -65.43094,0 -18.06778,-18.0676 -18.06778,-47.3616 0,-65.4293 l 63.29715,-63.2971 c 2.74891,-2.7498 2.74891,-7.208 0,-9.957 -2.74971,-2.7498 -7.20723,-2.7498 -9.95694,0 l -93.73626,93.7362 c -10.21251,10.2125 -26.77014,10.2125 -36.98264,0 -10.21174,-10.2125 -10.21174,-26.7694 0,-36.9827 5.59487,-10.8191 67.81971,-77.1433 91.77406,-103.2075 9.11063,-10.3799 -4.77984,-22.0283 -13.52689,-13.4377 l -6.46745,5.4107 c -12.96221,12.963 -33.97813,12.963 -46.94039,0 -12.96222,-12.9623 -12.96222,-33.9781 0,-46.9406 120.39581,-128.357 147.05167,-156.2609 255.68314,-270.1146 l 303.01335,290.6494 c 0,0 -226.32595,216.2372 -254.69748,246.19165 0,0 -22.51851,-21.23325 -25.1048,-23.60115 -2.8774,-2.6344 -9.2201,-6.8744 -15.39119,-6.1168 -8.10504,0.995 -11.88676,7.0867 -14.69289,9.5986 -3.79326,3.3955 -22.46589,23.40385 -22.46589,23.40385 z"
       style="display:inline;fill:#a5e4dc;fill-opacity:1;fill-rule:nonzero;stroke:none;stroke-width:0.78161"
       id="path61-4-1"
       sodipodi:nodetypes="cccsccsscsssccccccccccsssc" />
    <path
       d="m 631.9823,-1194.7326 -3.55692,3.557 c -2.4141,2.4146 -6.32909,2.4146 -8.74372,0 -2.41359,-2.4147 -2.41359,-6.3291 0,-8.7437 42.62903,-42.7973 134.52611,-132.4725 177.39318,-175.0318 l -0.59691,17.5989"
       style="display:inline;fill:#c0f0e6;fill-opacity:1;fill-rule:nonzero;stroke:none;stroke-width:0.507915"
       id="path249-2-5-8-8"
       sodipodi:nodetypes="cccccc" />
    <path
       d="m 789.82147,-1322.5509 -238.92922,231.4057 c -4.41687,4.4168 -4.41687,11.5787 0,15.9964 4.41768,4.4176 11.57959,4.4176 15.99646,0 l 109.69392,-108.691 c 1.521,-1.5202 8.75069,-1.7709 10.27171,-0.2507 1.52022,1.521 1.02691,8.509 -0.50154,10.021 l -92.91039,91.9074 c -2.4031,2.3771 -2.39016,6.2646 0,8.654 2.38939,2.3893 6.22239,2.3463 8.654,0 l 214.65474,-207.1321 c -22.21139,-34.6495 -1.06406,-2.6613 -26.92968,-41.9107"
       style="display:inline;fill:#c0f0e6;fill-opacity:1;fill-rule:nonzero;stroke:none;stroke-width:0.78161"
       id="path253-5"
       sodipodi:nodetypes="ccccccsscscc" />
    <path
       d="m 467.77996,-1157.9649 c -12.68837,0 -22.97061,10.2815 -22.97061,22.965 0,12.683 10.28224,22.9649 22.97061,22.9649 12.68345,0 22.96489,-10.2819 22.96489,-22.9649 0,-12.6835 -10.28144,-22.965 -22.96489,-22.965 m 0,51.5667 c -15.77195,0 -28.60749,-12.8298 -28.60749,-28.6017 0,-15.7723 12.83554,-28.6075 28.60749,-28.6075 15.77233,0 28.60216,12.8352 28.60216,28.6075 0,15.7719 -12.82983,28.6017 -28.60216,28.6017"
       style="display:inline;fill:#c0f0e6;fill-opacity:1;fill-rule:nonzero;stroke:none;stroke-width:0.408853"
       id="path245-5-8" />
    <path
       d="m 683.87983,-1013.711 -52.45392,51.58342"
       style="display:inline;fill:#ffb2a6;fill-opacity:1;stroke:#fa9191;stroke-width:2.31518;stroke-linecap:round;stroke-linejoin:miter;stroke-miterlimit:10;stroke-dasharray:none;stroke-opacity:1"
       id="path257-3"
       sodipodi:nodetypes="cc" />
    <path
       d="m 589.96201,-1338.5899 -83.69994,83.6998"
       style="display:inline;fill:none;stroke:#ffffff;stroke-width:1.94262;stroke-linecap:round;stroke-linejoin:miter;stroke-miterlimit:10;stroke-dasharray:none;stroke-opacity:1"
       id="path217-3" />
    <path
       d="M 588.81285,-1357.3898 481.54488,-1250.122"
       style="display:inline;fill:none;stroke:#ffffff;stroke-width:2.48963;stroke-linecap:round;stroke-linejoin:miter;stroke-miterlimit:10;stroke-dasharray:none;stroke-opacity:1"
       id="path217-3-2" />
    <path
       d="m 717.44112,-1031.3337 -44.70878,43.14909"
       style="display:inline;fill:none;stroke:#ffffff;stroke-width:1.77881;stroke-linecap:round;stroke-linejoin:miter;stroke-miterlimit:10;stroke-dasharray:none;stroke-opacity:1"
       id="path217-3-2-6"
       sodipodi:nodetypes="cc" />
    <path
       style="fill:#c0f0e6;fill-opacity:1;stroke:#002c6a;stroke-width:0.914836;stroke-linecap:round;stroke-linejoin:round;stroke-dasharray:none;paint-order:markers fill stroke"
       d="m -310.43577,-943.0054 v -359.8147"
       id="path2679"
       sodipodi:nodetypes="cc" />
    <path
       style="display:inline;fill:#c0f0e6;fill-opacity:1;stroke:#002c6a;stroke-width:0.914836;stroke-linecap:round;stroke-linejoin:round;stroke-dasharray:none;paint-order:markers fill stroke"
       d="M -291.28858,-583.25056 V -943.06524"
       id="path2679-9"
       sodipodi:nodetypes="cc" />
    <path
       d="m 556.75332,-1229.8282 c 0,-4.9135 -3.98277,-8.8968 -8.89631,-8.8968 -4.91354,0 -8.89631,3.9833 -8.89631,8.8968 0,4.9135 3.98277,8.8963 8.89631,8.8963 4.91354,0 8.89631,-3.9828 8.89631,-8.8963"
       style="display:inline;fill:#ffffff;fill-opacity:1;fill-rule:nonzero;stroke:none;stroke-width:0.434942"
       id="path241-5" />
    <path
       d="m 742.56103,-898.26209 c 0,-20.49651 -16.61602,-37.11345 -37.11344,-37.11345 -20.49743,0 -37.11344,16.61694 -37.11344,37.11345 0,20.49743 16.61601,37.11344 37.11344,37.11344 20.49742,0 37.11344,-16.61601 37.11344,-37.11344"
       style="display:inline;fill:#ffd31d;fill-opacity:1;fill-rule:nonzero;stroke:none;stroke-width:0.910919"
       id="path37-9" />
    <path
       d="m 73.759027,-1252.0107 c 0,-16.5379 -13.406881,-29.9456 -29.945547,-29.9456 -16.538666,0 -29.94556,13.4077 -29.94556,29.9456 0,16.5387 13.406894,29.9456 29.94556,29.9456 16.538666,0 29.945547,-13.4069 29.945547,-29.9456"
       style="display:inline;fill:#ffd31d;fill-opacity:1;fill-rule:nonzero;stroke:none;stroke-width:0.734986"
       id="path37-9-6" />
    <path
       d="m 686.87298,-390.27814 v 0 c 1.759,1.759 4.611,1.759 6.37,0 l 13.565,-13.564 c 1.759,-1.759 1.759,-4.612 0,-6.372 -1.759,-1.758 -4.612,-1.758 -6.372,0 l -13.563,13.565 c -1.76,1.759 -1.76,4.611 0,6.371"
       style="display:inline;fill:#fa9191;fill-opacity:1;fill-rule:nonzero;stroke:none"
       id="path65-6" />
    <path
       d="m 706.80758,-390.27814 v 0 c 1.76,-1.76 1.76,-4.612 0,-6.371 l -13.564,-13.565 c -1.759,-1.758 -4.612,-1.758 -6.371,0 -1.759,1.76 -1.759,4.613 0,6.372 l 13.564,13.564 c 1.76,1.759 4.612,1.759 6.371,0"
       style="display:inline;fill:#fa9191;fill-opacity:1;fill-rule:nonzero;stroke:none"
       id="path69-9" />
    <path
       d="m 26.365249,-715.48143 v 0 c 2.469753,2.45651 6.47415,2.45651 8.943903,0 l 19.046158,-18.94268 c 2.469755,-2.45653 2.469755,-6.44086 0,-8.89878 -2.469752,-2.45513 -6.475551,-2.45513 -8.946709,0 l -19.043352,18.94408 c -2.471155,2.45653 -2.471155,6.43946 0,8.89738"
       style="display:inline;fill:#fa9191;fill-opacity:1;fill-rule:nonzero;stroke:none;stroke-width:1.40029"
       id="path65-2" />
    <path
       d="m 54.35475,-715.48143 v 0 c 2.471157,-2.45792 2.471157,-6.44085 0,-8.89738 l -19.044755,-18.94408 c -2.469753,-2.45513 -6.475555,-2.45513 -8.945307,0 -2.469753,2.45792 -2.469753,6.44225 0,8.89878 l 19.044756,18.94268 c 2.471157,2.45651 6.475553,2.45651 8.945306,0"
       style="display:inline;fill:#fa9191;fill-opacity:1;fill-rule:nonzero;stroke:none;stroke-width:1.40029"
       id="path69-2" />
    <path
       d="m 88.79279,-1275.9916 v 0 c 1.202176,1.2022 3.151347,1.2022 4.353523,0 l 9.270887,-9.2702 c 1.20218,-1.2022 1.20218,-3.152 0,-4.3549 -1.20218,-1.2015 -3.152034,-1.2015 -4.35489,0 l -9.26952,9.2709 c -1.202856,1.2022 -1.202856,3.1513 0,4.3542"
       style="display:inline;fill:#fa9191;fill-opacity:1;fill-rule:nonzero;stroke:none;stroke-width:0.683444"
       id="path65-5" />
    <path
       d="m 102.41692,-1275.9916 v 0 c 1.20287,-1.2029 1.20287,-3.152 0,-4.3542 l -9.270198,-9.2709 c -1.202169,-1.2015 -3.152033,-1.2015 -4.354203,0 -1.202176,1.2029 -1.202176,3.1527 0,4.3549 l 9.270201,9.2702 c 1.202856,1.2022 3.15203,1.2022 4.3542,0"
       style="display:inline;fill:#fa9191;fill-opacity:1;fill-rule:nonzero;stroke:none;stroke-width:0.683444"
       id="path69-7" />
    <path
       d="m 453.82542,-1005.7747 c 0,-1.1142 -0.90259,-2.0174 -2.01677,-2.0174 -1.11419,0 -2.01805,0.9032 -2.01805,2.0174 0,1.1142 0.90386,2.0175 2.01805,2.0175 1.11418,0 2.01677,-0.9033 2.01677,-2.0175"
       style="display:inline;fill:#fa9191;fill-opacity:1;fill-rule:nonzero;stroke:none;stroke-width:0.639234"
       id="path89-3" />
    <path
       d="m 453.82542,-1016.3149 c 0,-1.1142 -0.90259,-2.0174 -2.01677,-2.0174 -1.11419,0 -2.01805,0.9032 -2.01805,2.0174 0,1.1142 0.90386,2.0175 2.01805,2.0175 1.11418,0 2.01677,-0.9033 2.01677,-2.0175"
       style="display:inline;fill:#fa9191;fill-opacity:1;fill-rule:nonzero;stroke:none;stroke-width:0.639234"
       id="path93-6" />
    <path
       d="m 464.09122,-1005.9797 c 0,-1.1142 -0.90323,-2.0175 -2.01741,-2.0175 -1.11418,0 -2.01805,0.9033 -2.01805,2.0175 0,1.1141 0.90387,2.0174 2.01805,2.0174 1.11418,0 2.01741,-0.9033 2.01741,-2.0174"
       style="display:inline;fill:#fa9191;fill-opacity:1;fill-rule:nonzero;stroke:none;stroke-width:0.639234"
       id="path97-8" />
    <path
       d="m 464.09122,-1016.3149 c 0,-1.1142 -0.90323,-2.0174 -2.01741,-2.0174 -1.11418,0 -2.01805,0.9032 -2.01805,2.0174 0,1.1142 0.90387,2.0175 2.01805,2.0175 1.11418,0 2.01741,-0.9033 2.01741,-2.0175"
       style="display:inline;fill:#fa9191;fill-opacity:1;fill-rule:nonzero;stroke:none;stroke-width:0.639234"
       id="path101-5" />
    <path
       d="m 87.841825,-1187.9359 c 0,-6.6221 -5.36893,-11.9911 -11.991162,-11.9911 -6.622245,0 -11.990386,5.369 -11.990386,11.9911 0,6.6224 5.368141,11.9912 11.990386,11.9912 6.622232,0 11.991162,-5.3688 11.991162,-11.9912"
       style="display:inline;fill:#c0f0e6;fill-opacity:1;fill-rule:nonzero;stroke:none;stroke-width:0.76144"
       id="path229-0" />
    <path
       d="m 707.32767,-827.53808 c 0,-8.46268 -6.86111,-15.32383 -15.32383,-15.32383 -8.46275,0 -15.32284,6.86115 -15.32284,15.32383 0,8.46278 6.86009,15.32384 15.32284,15.32384 8.46272,0 15.32383,-6.86106 15.32383,-15.32384"
       style="display:inline;fill:#fa9191;fill-opacity:1;fill-rule:nonzero;stroke:none;stroke-width:0.973064"
       id="path229-0-8" />
    <path
       d="m 646.86423,-1037.6921 c 0,-4.234 -3.43203,-7.666 -7.66526,-7.666 -4.23323,0 -7.66599,3.432 -7.66599,7.666 0,4.2332 3.43276,7.6652 7.66599,7.6652 4.23323,0 7.66526,-3.432 7.66526,-7.6652"
       style="display:inline;fill:#fa9191;fill-opacity:1;fill-rule:nonzero;stroke:none;stroke-width:0.723752"
       id="path85-3" />
    <path
       d="m 655.79989,-900.01506 c 0,-5.83005 -4.72584,-10.5559 -10.55491,-10.5559 -5.82906,0 -10.55589,4.72585 -10.55589,10.5559 0,5.82907 4.72683,10.55491 10.55589,10.55491 5.82907,0 10.55491,-4.72584 10.55491,-10.55491"
       style="display:inline;fill:#a5e4dc;fill-opacity:1;fill-rule:nonzero;stroke:none;stroke-width:0.996596"
       id="path85-1" />
    <path
       style="display:inline;fill:#c0f0e6;fill-opacity:1;stroke:#002c6a;stroke-width:0.914836;stroke-linecap:round;stroke-linejoin:round;stroke-dasharray:none;paint-order:markers fill stroke"
       d="m -320.7804,-222.08903 v -359.8147"
       id="path2679-7"
       sodipodi:nodetypes="cc" />
    <path
       style="display:inline;fill:#c0f0e6;fill-opacity:1;stroke:#002c6a;stroke-width:0.914836;stroke-linecap:round;stroke-linejoin:round;stroke-dasharray:none;paint-order:markers fill stroke"
       d="M -304.90018,139.5262 V -220.2885"
       id="path2679-5"
       sodipodi:nodetypes="cc" />
    <path
       style="display:inline;fill:#c0f0e6;fill-opacity:1;stroke:#002c6a;stroke-width:0.914836;stroke-linecap:round;stroke-linejoin:round;stroke-dasharray:none;paint-order:markers fill stroke"
       d="M -326.67877,501.1415 V 141.3268"
       id="path2679-3"
       sodipodi:nodetypes="cc" />
    <path
       d="m 70.279055,-1036.2972 c 0,-4.234 -3.43203,-7.666 -7.66526,-7.666 -4.23323,0 -7.66599,3.432 -7.66599,7.666 0,4.2332 3.43276,7.6652 7.66599,7.6652 4.23323,0 7.66526,-3.432 7.66526,-7.6652"
       style="display:inline;fill:#fa9191;fill-opacity:1;fill-rule:nonzero;stroke:none;stroke-width:0.723752"
       id="path85-3-2" />
  </g>
</svg>
