<?xml version="1.0" encoding="UTF-8" standalone="no"?>
<!-- Created with Inkscape (http://www.inkscape.org/) -->

<svg
   width="210mm"
   height="97mm"
   viewBox="0 0 210 97"
   version="1.1"
   id="svg473"
   inkscape:version="1.2.1 (9c6d41e410, 2022-07-14)"
   sodipodi:docname="background_banner.svg"
   xmlns:inkscape="http://www.inkscape.org/namespaces/inkscape"
   xmlns:sodipodi="http://sodipodi.sourceforge.net/DTD/sodipodi-0.dtd"
   xmlns="http://www.w3.org/2000/svg"
   xmlns:svg="http://www.w3.org/2000/svg">
  <sodipodi:namedview
     id="namedview475"
     pagecolor="#ffffff"
     bordercolor="#000000"
     borderopacity="0.25"
     inkscape:showpageshadow="2"
     inkscape:pageopacity="0.0"
     inkscape:pagecheckerboard="0"
     inkscape:deskcolor="#d1d1d1"
     inkscape:document-units="mm"
     showgrid="false"
     inkscape:zoom="0.914906"
     inkscape:cx="378.18093"
     inkscape:cy="468.35412"
     inkscape:window-width="1276"
     inkscape:window-height="1321"
     inkscape:window-x="1271"
     inkscape:window-y="0"
     inkscape:window-maximized="0"
     inkscape:current-layer="layer1" />
  <defs
     id="defs470" />
  <g
     inkscape:label="Calque 1"
     inkscape:groupmode="layer"
     id="layer1">
    <path
       d="m 70.372845,-0.42211832 7.376164,7.37617212 c 5.114062,5.1143402 13.406378,5.1140612 18.52016,-7.967e-4 l 4.225201,-4.2257609 c 0.89196,-0.8919594 2.33776,-0.8919594 3.22945,0 l 0.042,0.041621 c 0.9274,0.9274014 0.92879,2.4165264 0.009,3.3354921 C 102.35878,7.520601 92.568891,17.310198 90.366421,19.51239 c -4.664853,4.664573 -4.665132,12.227787 -2.79e-4,16.892639 4.664564,4.664565 12.227778,4.664565 16.892358,0 l 40.92217,-40.922351 9.01043,1.2278179 -14.89691,14.8969131 c -6.50249,6.502488 -6.50249,17.044813 0,23.547301 6.50221,6.502209 17.04453,6.502209 23.54675,0 l 22.77925,-22.779393 c 0.98957,-0.989283 2.59403,-0.989283 3.58331,0 0.98956,0.989563 0.98956,2.593744 0,3.583307 l -33.73381,33.733803 c -3.67527,3.675281 -3.67527,9.634051 0,13.309331 3.67529,3.675002 9.63377,3.675002 13.30935,0 l 23.36784,-23.368129 c 1.06045,-1.060168 2.7791,-1.060168 3.83899,0 1.06045,1.060168 1.06045,2.779111 0,3.839279 l -0.40899,0.40899 c -7.7604,7.760686 -7.7604,20.343173 0,28.103859 l 17.42961,17.429328 V -11.6744"
       style="display:inline;fill:#a5e4dc;fill-opacity:1;fill-rule:nonzero;stroke:none;stroke-width:0.281286"
       id="path29" />
    <path
       d="m 186.88589,51.257362 c 0,1.210931 -0.98141,2.192344 -2.19235,2.192344 -1.21092,0 -2.19235,-0.981413 -2.19235,-2.192344 0,-1.210938 0.98143,-2.192343 2.19235,-2.192343 1.21094,0 2.19235,0.981405 2.19235,2.192343"
       style="display:inline;fill:#fa9191;fill-opacity:1;fill-rule:nonzero;stroke:none;stroke-width:0.281286"
       id="path205" />
    <path
       d="M 182.85669,37.544939 218.63122,1.7704094"
       style="display:inline;fill:none;stroke:#ffffff;stroke-width:0.843856;stroke-linecap:round;stroke-linejoin:miter;stroke-miterlimit:10;stroke-dasharray:none;stroke-opacity:1"
       id="path209" />
    <path
       d="M 118.92865,15.604762 137.66034,-3.1269252"
       style="display:inline;fill:none;stroke:#ffffff;stroke-width:0.843856;stroke-linecap:round;stroke-linejoin:miter;stroke-miterlimit:10;stroke-dasharray:none;stroke-opacity:1"
       id="path213" />
    <path
       d="m 131.80709,33.202727 c 0,1.29335 -1.04835,2.341423 -2.34143,2.341423 -1.29307,0 -2.34142,-1.048073 -2.34142,-2.341423 0,-1.293074 1.04835,-2.341425 2.34142,-2.341425 1.29308,0 2.34143,1.048351 2.34143,2.341425"
       style="display:inline;fill:#a5e4dc;fill-opacity:1;fill-rule:nonzero;stroke:none;stroke-width:0.281286"
       id="path233" />
    <path
       d="m 206.13073,34.998613 c 0,1.504522 -1.21978,2.724302 -2.7243,2.724302 -1.50453,0 -2.72398,-1.21978 -2.72398,-2.724302 0,-1.504513 1.21945,-2.724302 2.72398,-2.724302 1.50452,0 2.7243,1.219789 2.7243,2.724302"
       style="display:inline;fill:#ffffff;fill-opacity:1;fill-rule:nonzero;stroke:none;stroke-width:0.327282"
       id="path237" />
    <path
       d="m 178.64016,-3.1933281 -17.1292,17.1289171 c -1.58955,1.589542 -1.58955,4.166973 0,5.756801 1.58982,1.58983 4.16725,1.58983 5.7568,0 l 9.15446,-9.154462 c 0.54737,-0.5470995 1.43455,-0.5470995 1.98195,0 0.54709,0.547387 0.54709,1.43484 0,1.981947 l -3.11441,3.114396 c -0.86018,0.860179 -0.86018,2.254514 0,3.114404 0.85989,0.85989 2.25451,0.85989 3.11441,0 l 8.39329,-8.3933 c 1.88209,-1.8823676 4.7121,-2.239316 6.95395,-1.0711388 0.52431,0.2736973 1.01685,0.6306446 1.45706,1.0711388 l 0.23038,0.229812 16.32668,-16.326691 c 0,0 -33.12537,2.359428 -33.12537,2.5481759"
       style="display:inline;fill:#c0f0e6;fill-opacity:1;fill-rule:nonzero;stroke:none;stroke-width:0.281286"
       id="path253" />
    <path
       d="M 131.9744,-11.980908 99.012441,20.981046"
       style="display:inline;fill:none;stroke:#fa9191;stroke-width:0.843856;stroke-linecap:round;stroke-linejoin:miter;stroke-miterlimit:10;stroke-dasharray:none;stroke-opacity:1"
       id="path265" />
    <path
       d="m 196.50074,11.609211 -1.29224,-1.253979 c 0,0 13.85842,-15.6757929 14.18358,-16.0009589 0.32515,-0.3251657 9.98425,1.0522902 9.98425,1.0522902 L 203.97873,11.47363 c -2.0233,2.111334 -5.37904,2.17237 -7.47799,0.135581"
       style="display:inline;fill:#c0f0e6;fill-opacity:1;fill-rule:nonzero;stroke:none;stroke-width:0.281286"
       id="path277" />
    <path
       d="m 53.546226,-0.62222051 c 0,10.08720741 -8.177275,18.26447451 -18.264474,18.26447451 -10.087199,0 -18.264474,-8.1772671 -18.264474,-18.26447451 0,-10.08719849 8.177275,-18.26446649 18.264474,-18.26446649 10.087199,0 18.264474,8.177268 18.264474,18.26446649"
       style="display:inline;fill:#ffd31d;fill-opacity:1;fill-rule:nonzero;stroke:none;stroke-width:0.281286"
       id="path33" />
    <path
       d="m 65.568449,30.496014 c -4.656128,0 -8.429022,-3.772893 -8.429022,-8.426774 0,-4.654158 3.772894,-8.427052 8.429022,-8.427052 4.65388,0 8.426773,3.772894 8.426773,8.427052 0,4.653881 -3.772893,8.426774 -8.426773,8.426774 m 0,-18.922396 c -5.78746,0 -10.497314,4.707883 -10.497314,10.495622 0,5.787461 4.709854,10.497323 10.497314,10.497323 5.78746,0 10.495346,-4.709862 10.495346,-10.497323 0,-5.787739 -4.707886,-10.495622 -10.495346,-10.495622"
       style="display:inline;fill:#a5e4dc;fill-opacity:1;fill-rule:nonzero;stroke:none;stroke-width:0.281286"
       id="path41" />
    <path
       d="m 200.12512,82.167377 c 0,2.72847 -2.21174,4.940227 -4.94022,4.940227 -2.72875,0 -4.9405,-2.211757 -4.9405,-4.940227 0,-2.72848 2.21175,-4.940231 4.9405,-4.940231 2.72848,0 4.94022,2.211751 4.94022,4.940231"
       style="display:inline;fill:#ffd31d;fill-opacity:1;fill-rule:nonzero;stroke:none;stroke-width:0.281286"
       id="path45" />
    <path
       d="m 6.2415189,56.265702 c 0,2.728472 -2.2117528,4.940512 -4.9402275,4.940512 -2.7287565,0 -4.9405097,-2.21204 -4.9405097,-4.940512 0,-2.728471 2.2117532,-4.940231 4.9405097,-4.940231 2.7284747,0 4.9402275,2.21176 4.9402275,4.940231"
       style="display:inline;fill:#ffd31d;fill-opacity:1;fill-rule:nonzero;stroke:none;stroke-width:0.281286"
       id="path57" />
    <path
       d="m 16.634272,90.188058 v 0 c 0.322073,-0.322069 0.843856,-0.322069 1.165649,0 l 2.481789,2.481507 c 0.321515,0.322065 0.321515,0.843853 0,1.165639 -0.322071,0.321796 -0.843856,0.321796 -1.165928,0 l -2.48151,-2.481493 c -0.322072,-0.321796 -0.322072,-0.843858 0,-1.165653"
       style="display:inline;fill:#fa9191;fill-opacity:1;fill-rule:nonzero;stroke:none;stroke-width:0.281286"
       id="path73" />
    <path
       d="m 63.759214,25.419571 -8.267001,8.266993"
       style="display:inline;fill:#ffb2a6;fill-opacity:1;stroke:#fa9191;stroke-width:0.843856;stroke-linecap:round;stroke-linejoin:miter;stroke-miterlimit:10;stroke-dasharray:none;stroke-opacity:1"
       id="path269" />
    <path
       d="m 20.281655,90.188058 v 0 c 0.321793,0.321795 0.321793,0.843857 0,1.165653 l -2.481789,2.481493 c -0.321793,0.321796 -0.843577,0.321796 -1.165649,0 -0.321794,-0.321786 -0.321794,-0.843574 0,-1.165639 l 2.48151,-2.481507 c 0.322072,-0.322069 0.843855,-0.322069 1.165928,0"
       style="display:inline;fill:#fa9191;fill-opacity:1;fill-rule:nonzero;stroke:none;stroke-width:0.281286"
       id="path77" />
    <path
       d="m 118.24613,30.836225 c 0,2.964758 -2.4033,5.367785 -5.36806,5.367785 -2.96446,0 -5.36777,-2.403027 -5.36777,-5.367785 0,-2.964749 2.40331,-5.367785 5.36777,-5.367785 2.96476,0 5.36806,2.403036 5.36806,5.367785"
       style="display:inline;fill:#fa9191;fill-opacity:1;fill-rule:nonzero;stroke:none;stroke-width:0.281286"
       id="path81" />
    <path
       d="m 18.759033,28.552154 c 0,1.645525 -1.333864,2.979382 -2.979102,2.979382 -1.645244,0 -2.979388,-1.333857 -2.979388,-2.979382 0,-1.645236 1.334144,-2.979101 2.979388,-2.979101 1.645238,0 2.979102,1.333865 2.979102,2.979101"
       style="display:inline;fill:#fa9191;fill-opacity:1;fill-rule:nonzero;stroke:none;stroke-width:0.281286"
       id="path85" />
    <path
       d="m 140.42326,45.911816 c 0,0.49028 -0.39717,0.887733 -0.88746,0.887733 -0.4903,0 -0.88802,-0.397453 -0.88802,-0.887733 0,-0.490281 0.39772,-0.887742 0.88802,-0.887742 0.49029,0 0.88746,0.397461 0.88746,0.887742"
       style="display:inline;fill:#fa9191;fill-opacity:1;fill-rule:nonzero;stroke:none;stroke-width:0.281286"
       id="path89" />
    <path
       d="m 140.42326,50.549885 c 0,0.490281 -0.39717,0.887742 -0.88746,0.887742 -0.4903,0 -0.88802,-0.397461 -0.88802,-0.887742 0,-0.490281 0.39772,-0.887742 0.88802,-0.887742 0.49029,0 0.88746,0.397461 0.88746,0.887742"
       style="display:inline;fill:#fa9191;fill-opacity:1;fill-rule:nonzero;stroke:none;stroke-width:0.281286"
       id="path93" />
    <path
       d="m 144.94059,46.00206 c 0,0.490279 -0.39746,0.887741 -0.88774,0.887741 -0.49028,0 -0.88801,-0.397462 -0.88801,-0.887741 0,-0.490281 0.39773,-0.887742 0.88801,-0.887742 0.49028,0 0.88774,0.397461 0.88774,0.887742"
       style="display:inline;fill:#fa9191;fill-opacity:1;fill-rule:nonzero;stroke:none;stroke-width:0.281286"
       id="path97" />
    <path
       d="m 144.94059,50.549885 c 0,0.490281 -0.39746,0.887742 -0.88774,0.887742 -0.49028,0 -0.88801,-0.397461 -0.88801,-0.887742 0,-0.490281 0.39773,-0.887742 0.88801,-0.887742 0.49028,0 0.88774,0.397461 0.88774,0.887742"
       style="display:inline;fill:#fa9191;fill-opacity:1;fill-rule:nonzero;stroke:none;stroke-width:0.281286"
       id="path101" />
  </g>
</svg>
