<?xml version="1.0" encoding="UTF-8" standalone="no"?>
<!-- Created with Inkscape (http://www.inkscape.org/) -->

<svg
   width="200mm"
   height="200mm"
   viewBox="0 0 200 200"
   version="1.1"
   id="svg16127"
   xml:space="preserve"
   inkscape:version="1.2.1 (9c6d41e410, 2022-07-14)"
   sodipodi:docname="icon-linkedin.svg"
   xmlns:inkscape="http://www.inkscape.org/namespaces/inkscape"
   xmlns:sodipodi="http://sodipodi.sourceforge.net/DTD/sodipodi-0.dtd"
   xmlns="http://www.w3.org/2000/svg"
   xmlns:svg="http://www.w3.org/2000/svg"><sodipodi:namedview
     id="namedview16129"
     pagecolor="#ffffff"
     bordercolor="#000000"
     borderopacity="0.25"
     inkscape:showpageshadow="2"
     inkscape:pageopacity="0.0"
     inkscape:pagecheckerboard="0"
     inkscape:deskcolor="#d1d1d1"
     inkscape:document-units="mm"
     showgrid="false"
     inkscape:zoom="0.914906"
     inkscape:cx="180.3464"
     inkscape:cy="439.3894"
     inkscape:window-width="2560"
     inkscape:window-height="1334"
     inkscape:window-x="-11"
     inkscape:window-y="-11"
     inkscape:window-maximized="1"
     inkscape:current-layer="layer1"
     showguides="true"><sodipodi:guide
       position="248.99416,120.47225"
       orientation="0,-1"
       id="guide29605"
       inkscape:locked="false" /></sodipodi:namedview><defs
     id="defs16124" /><g
     inkscape:label="Calque 1"
     inkscape:groupmode="layer"
     id="layer1"><path
       id="path16665"
       style="fill:none;stroke:#002c6a;stroke-width:20;stroke-linecap:round;stroke-linejoin:bevel;paint-order:markers fill stroke"
       d="M 12.023406,119.06594 C 10.697901,112.92058 9.9999463,106.5418 9.9999466,100 9.9999488,50.294347 50.294336,9.999954 99.999985,9.9999542 149.70563,9.9999559 190.00002,50.294348 190.00002,100 c 0,49.70565 -40.29439,90.00005 -90.000035,90.00005 -5.320934,0 -10.53402,-0.46175 -15.601373,-1.34737 m -24.26563,-7.94187 c -2.244674,-1.11088 -4.436372,-2.31263 -6.570272,-3.60047 M 34.349611,161.56369 c -4.52061,-4.81877 -8.516747,-10.13544 -11.89731,-15.85892"
       sodipodi:nodetypes="cssssccccc" /><g
       data-name="linkedin"
       id="g28062"
       transform="matrix(6.5786048,0,0,6.5786048,-224.98513,-12.429138)"><rect
         width="24"
         height="24"
         transform="rotate(180,12,12)"
         opacity="0"
         id="rect28054"
         x="0"
         y="0" /><path
         d="M 15.15,8.4 A 5.83,5.83 0 0 0 9.3,14.22 v 5.88 a 0.9,0.9 0 0 0 0.9,0.9 h 2.1 a 0.9,0.9 0 0 0 0.9,-0.9 v -5.88 a 1.94,1.94 0 0 1 2.15,-1.93 2,2 0 0 1 1.75,2 V 20.1 A 0.9,0.9 0 0 0 18,21 h 2.1 A 0.9,0.9 0 0 0 21,20.1 V 14.22 A 5.83,5.83 0 0 0 15.15,8.4 Z"
         id="path28056" /><rect
         x="3"
         y="9.3000002"
         width="4.5"
         height="11.7"
         rx="0.89999998"
         ry="0.89999998"
         id="rect28058" /><circle
         cx="5.25"
         cy="5.25"
         r="2.25"
         id="circle28060" /></g><g
       id="g29630"
       transform="translate(0,8.7316526)"><circle
         style="fill:#002c6a;fill-opacity:1;stroke:none;stroke-width:15;stroke-linecap:round;stroke-linejoin:round;stroke-dasharray:none;paint-order:markers fill stroke"
         id="path28512"
         cx="64.200546"
         cy="58.648975"
         r="7.5" /><g
         id="g29609"
         transform="translate(-10.049699,-4.0086064)"><path
           style="fill:none;stroke:#002c6a;stroke-width:15;stroke-linecap:round;stroke-linejoin:round;stroke-dasharray:none;paint-order:markers fill stroke"
           d="M 74.250244,80.120887 V 127.89633"
           id="path28510"
           sodipodi:nodetypes="cc" /><path
           style="fill:none;fill-opacity:1;stroke:#002c6a;stroke-width:15;stroke-linecap:round;stroke-linejoin:round;stroke-dasharray:none;stroke-opacity:1;paint-order:markers fill stroke"
           d="m 99.445958,127.89633 c 0,0 -5.159673,-47.775442 23.008772,-47.775443 28.16844,-10e-7 23.00876,47.775443 23.00876,47.775443"
           id="path29603"
           sodipodi:nodetypes="czc" /></g></g></g></svg>
