<?xml version="1.0" encoding="UTF-8" standalone="no"?>
<!-- Created with Inkscape (http://www.inkscape.org/) -->

<svg
   width="260.867mm"
   height="200mm"
   viewBox="0 0 260.867 200"
   version="1.1"
   id="svg5"
   xml:space="preserve"
   inkscape:version="1.2.1 (9c6d41e410, 2022-07-14)"
   sodipodi:docname="icon-girl.svg"
   xmlns:inkscape="http://www.inkscape.org/namespaces/inkscape"
   xmlns:sodipodi="http://sodipodi.sourceforge.net/DTD/sodipodi-0.dtd"
   xmlns="http://www.w3.org/2000/svg"
   xmlns:svg="http://www.w3.org/2000/svg"><sodipodi:namedview
     id="namedview7"
     pagecolor="#ffffff"
     bordercolor="#000000"
     borderopacity="0.25"
     inkscape:showpageshadow="2"
     inkscape:pageopacity="0.0"
     inkscape:pagecheckerboard="0"
     inkscape:deskcolor="#d1d1d1"
     inkscape:document-units="mm"
     showgrid="false"
     showguides="true"
     inkscape:zoom="0.914906"
     inkscape:cx="361.23929"
     inkscape:cy="417.52923"
     inkscape:window-width="2560"
     inkscape:window-height="1334"
     inkscape:window-x="-11"
     inkscape:window-y="-11"
     inkscape:window-maximized="1"
     inkscape:current-layer="g147"><sodipodi:guide
       position="128.93063,105.42361"
       orientation="0,-1"
       id="guide2796"
       inkscape:locked="false" /><sodipodi:guide
       position="94.167412,85.537003"
       orientation="1,0"
       id="guide2798"
       inkscape:locked="false" /><sodipodi:guide
       position="88.058908,95.312559"
       orientation="1,0"
       id="guide3526"
       inkscape:locked="false" /><sodipodi:guide
       position="111.958,88.450977"
       orientation="1,0"
       id="guide3528"
       inkscape:locked="false" /><sodipodi:guide
       position="123.91869,107.16942"
       orientation="1,0"
       id="guide3530"
       inkscape:locked="false" /><sodipodi:guide
       position="100.91557,79.402318"
       orientation="0,-1"
       id="guide4262"
       inkscape:locked="false" /><sodipodi:guide
       position="101.79552,83.60029"
       orientation="1,0"
       id="guide9516"
       inkscape:locked="false" /><sodipodi:guide
       position="106.94801,81.651701"
       orientation="1,0"
       id="guide9518"
       inkscape:locked="false" /></sodipodi:namedview><defs
     id="defs2"><inkscape:path-effect
       effect="spiro"
       id="path-effect8058"
       is_visible="true"
       lpeversion="1" /></defs><g
     inkscape:label="Calque 1"
     inkscape:groupmode="layer"
     id="layer1"><g
       style="fill:none"
       id="g147"
       transform="matrix(5.9666283,0,0,5.9666283,28.431719,28.948964)"><path
         d="m 13.6215,11.90807 c 0,0.925649 -0.750374,1.675988 -1.675989,1.675988 -0.826893,0 -1.513933,-0.598819 -1.651079,-1.386492 -0.2976181,-0.07998 -0.6302634,-0.354515 -0.7858252,-0.610698 0.2833874,0.06641 0.5706032,0.06075 0.7869172,-0.01247 -0.176526,-0.06866 -0.6719173,-0.259715 -0.8477986,-0.84332 0.4972525,0.258395 0.8929426,0.401306 1.2103446,0.103899 0.307438,-0.368365 0.770064,-0.602793 1.287441,-0.602793 0.925615,0 1.675989,0.750339 1.675989,1.675989 z"
         fill="#000000"
         id="path132"
         sodipodi:nodetypes="sscccccss"
         style="fill:#002c6a;fill-opacity:1;stroke-width:1.676" /><path
         fill-rule="evenodd"
         clip-rule="evenodd"
         d="m 17.014371,-4.8517627 -0.04089,-5.02e-5 c -9.2562403,0 -16.75989181,7.5036514 -16.75989181,16.7598829 0,2.276558 -2.06428749,6.802842 -4.97871239,8.010113 2.0663505,2.651237 5.70922179,5.070747 11.0342696,4.886594 2.9033706,2.412488 6.6344366,3.863178 10.7043276,3.863178 4.046477,0 7.758044,-1.434073 10.654181,-3.821701 5.87248,0.688875 9.269851,-1.286928 11.328208,-4.992093 -3.523985,-1.066118 -5.222505,-4.528832 -5.222505,-7.946091 0,-8.8117593 -6.800323,-16.0352358 -15.439206,-16.7086145 l 0.001,-0.004 c -0.428549,-0.032329 -0.855759,-0.047916 -1.280789,-0.047212 z m -0.04089,30.1677397 c 7.405019,0 13.407906,-6.002887 13.407906,-13.407907 0,-1.170845 -0.150001,-2.3066627 -0.43207,-3.3892663 C 23.945086,8.9437503 18.206835,6.0833578 14.896089,1.1858683 12.470464,3.6602977 9.0933139,5.1985196 5.3568486,5.2083578 4.217562,7.179538 3.5655689,9.4676652 3.5655689,11.90807 c 0,7.40502 6.0029213,13.407907 13.4079081,13.407907 z m -0.03603,-26.8157628 h 0.07559 l -0.03955,-5.03e-5 z"
         fill="#000000"
         id="path136"
         sodipodi:nodetypes="ccscccccscccsscccsscccc"
         style="fill:#002c6a;fill-opacity:1;stroke-width:1.676" /><path
         d="m 20.337914,11.90807 c 0,0.925649 0.750371,1.675988 1.675987,1.675988 0.826893,0 1.513932,-0.598819 1.651077,-1.386492 0.297621,-0.07996 0.630264,-0.354515 0.785825,-0.610698 -0.283386,0.06641 -0.5706,0.06075 -0.786915,-0.01248 0.176526,-0.06866 0.671917,-0.259711 0.847798,-0.843316 -0.497252,0.258395 -0.892942,0.401306 -1.210344,0.103899 -0.307438,-0.368365 -0.770065,-0.602793 -1.287441,-0.602793 -0.925616,0 -1.675987,0.750339 -1.675987,1.675989 z"
         fill="#000000"
         id="path5794"
         sodipodi:nodetypes="sscccccss"
         style="fill:#002c6a;fill-opacity:1;stroke-width:1.676" /></g></g></svg>
