<?xml version="1.0" encoding="UTF-8" standalone="no"?>
<!-- Created with Inkscape (http://www.inkscape.org/) -->

<svg
   width="200mm"
   height="200mm"
   viewBox="0 0 200 200"
   version="1.1"
   id="svg16127"
   xml:space="preserve"
   inkscape:version="1.2.1 (9c6d41e410, 2022-07-14)"
   sodipodi:docname="icon-mail.svg"
   xmlns:inkscape="http://www.inkscape.org/namespaces/inkscape"
   xmlns:sodipodi="http://sodipodi.sourceforge.net/DTD/sodipodi-0.dtd"
   xmlns="http://www.w3.org/2000/svg"
   xmlns:svg="http://www.w3.org/2000/svg"><sodipodi:namedview
     id="namedview16129"
     pagecolor="#ffffff"
     bordercolor="#000000"
     borderopacity="0.25"
     inkscape:showpageshadow="2"
     inkscape:pageopacity="0.0"
     inkscape:pagecheckerboard="0"
     inkscape:deskcolor="#d1d1d1"
     inkscape:document-units="mm"
     showgrid="false"
     inkscape:zoom="1.829812"
     inkscape:cx="290.74025"
     inkscape:cy="686.40931"
     inkscape:window-width="2560"
     inkscape:window-height="1334"
     inkscape:window-x="-11"
     inkscape:window-y="-11"
     inkscape:window-maximized="1"
     inkscape:current-layer="layer1" /><defs
     id="defs16124" /><g
     inkscape:label="Calque 1"
     inkscape:groupmode="layer"
     id="layer1"><path
       id="path16665"
       style="fill:none;stroke:#002c6a;stroke-width:20;stroke-linecap:round;stroke-linejoin:bevel;paint-order:markers fill stroke"
       d="M 12.023406,119.06594 C 10.697901,112.92058 9.9999463,106.5418 9.9999466,100 9.9999488,50.294347 50.294336,9.999954 99.999985,9.9999542 149.70563,9.9999559 190.00002,50.294348 190.00002,100 c 0,49.70565 -40.29439,90.00005 -90.000035,90.00005 -5.320934,0 -10.53402,-0.46175 -15.601373,-1.34737 m -24.26563,-7.94187 c -2.244674,-1.11088 -4.436372,-2.31263 -6.570272,-3.60047 M 34.349611,161.56369 c -4.52061,-4.81877 -8.516747,-10.13544 -11.89731,-15.85892"
       sodipodi:nodetypes="cssssccccc" /><rect
       style="fill:none;fill-opacity:1;stroke:#002c6a;stroke-width:15;stroke-linecap:round;stroke-linejoin:round;stroke-dasharray:none;stroke-opacity:1;paint-order:markers fill stroke"
       id="rect25489"
       width="107.35291"
       height="66.347755"
       x="46.323528"
       y="66.826126" /><path
       style="fill:none;fill-opacity:1;stroke:#002c6a;stroke-width:15;stroke-linecap:round;stroke-linejoin:round;stroke-dasharray:none;stroke-opacity:1;paint-order:markers fill stroke"
       d="m 47.077882,66.826126 c 0,0 31.0578,38.712714 52.922104,38.751704 21.807494,0.0389 52.922104,-38.462512 52.922104,-38.462512"
       id="path25597"
       sodipodi:nodetypes="csc" /></g></svg>
