<?xml version="1.0" encoding="UTF-8" standalone="no"?>
<!-- Created with Inkscape (http://www.inkscape.org/) -->

<svg
   width="210mm"
   height="302mm"
   viewBox="0 0 210 302"
   version="1.1"
   id="svg1222"
   inkscape:version="1.2.1 (9c6d41e410, 2022-07-14)"
   sodipodi:docname="background_middle.svg"
   xmlns:inkscape="http://www.inkscape.org/namespaces/inkscape"
   xmlns:sodipodi="http://sodipodi.sourceforge.net/DTD/sodipodi-0.dtd"
   xmlns="http://www.w3.org/2000/svg"
   xmlns:svg="http://www.w3.org/2000/svg">
  <sodipodi:namedview
     id="namedview1224"
     pagecolor="#ffffff"
     bordercolor="#000000"
     borderopacity="0.25"
     inkscape:showpageshadow="2"
     inkscape:pageopacity="0.0"
     inkscape:pagecheckerboard="0"
     inkscape:deskcolor="#d1d1d1"
     inkscape:document-units="mm"
     showgrid="false"
     inkscape:zoom="0.914906"
     inkscape:cx="444.85444"
     inkscape:cy="737.2342"
     inkscape:window-width="1276"
     inkscape:window-height="1321"
     inkscape:window-x="1271"
     inkscape:window-y="0"
     inkscape:window-maximized="0"
     inkscape:current-layer="layer1" />
  <defs
     id="defs1219" />
  <g
     inkscape:label="Calque 1"
     inkscape:groupmode="layer"
     id="layer1">
    <path
       d="M -1.7997079,43.19578 21.23743,20.282104 c 5.164739,-5.137055 13.53842,-5.137055 18.703442,0 v 0 c 5.164448,5.137062 5.164448,13.465872 0,18.60293 L 29.448675,49.321002 c -2.267739,2.255307 -2.267739,5.912215 0,8.167242 2.267456,2.255306 5.943513,2.255306 8.210968,0 l 2.281229,-2.268445 c 4.660828,-4.636126 12.217524,-4.636126 16.878344,0 4.660828,4.635846 4.660828,12.152044 0,16.787895 l -9.351713,9.301598 c -1.007545,1.002424 -1.007545,2.627378 0,3.629802 1.007819,1.002413 2.641803,1.002413 3.649347,0 L 73.925782,62.252403 c 4.031288,-4.009408 10.566956,-4.009408 14.597952,0 4.031016,4.009675 4.031016,10.510324 0,14.519444 l -6.158507,6.12551 c -0.881917,0.877172 -0.881917,2.299183 0,3.176375 0.881629,0.876639 2.311312,0.876639 3.193229,0 l 0.51065,-0.508195 c 10.803307,-10.745422 28.631084,-11.047049 39.122364,0 18.44935,19.426673 -3.71379,41.853673 -3.71379,41.853673 L -18.627459,266.09591 -35.100554,96.055735 c 0,0 35.35387192,-50.818215 33.3008461,-52.859955"
       style="display:inline;fill:#c0f0e6;fill-opacity:1;fill-rule:nonzero;stroke:none;stroke-width:0.28029"
       id="path61-4"
       sodipodi:nodetypes="csssccccccsccccccscccscccc" />
    <path
       d="m 117.76546,147.73997 c -8.72191,0 -15.78988,-7.02953 -15.78988,-15.70136 0,-8.67151 7.06797,-15.70131 15.78988,-15.70131 8.71854,0 15.78593,7.0298 15.78593,15.70131 0,8.67183 -7.06739,15.70136 -15.78593,15.70136 m 0,-35.25666 c -10.84153,0 -19.664612,8.77189 -19.664612,19.5553 0,10.78373 8.823082,19.55925 19.664612,19.55925 10.84182,0 19.66096,-8.77552 19.66096,-19.55925 0,-10.78341 -8.81914,-19.5553 -19.66096,-19.5553"
       style="display:inline;fill:#a5e4dc;fill-opacity:1;fill-rule:nonzero;stroke:none;stroke-width:0.28029"
       id="path245-5" />
    <path
       d="m 26.968426,78.794791 c 1.216636,-1.225209 3.201644,-1.229687 4.425871,-0.01223 1.218603,1.212351 1.218603,3.177772 0,4.389856 l -4.722374,4.697346 c -0.61155,0.60799 -0.61155,1.59392 0,2.202195 0.611267,0.607988 1.60251,0.607988 2.214061,0 l 1.96815,-1.957595 c 1.335796,-1.328926 3.502084,-1.328926 4.838164,0 1.33552,1.328913 1.33552,3.483312 0,4.812225 C 12.10436,116.4806 -11.695031,139.8264 -35.414668,163.24958 l -0.0304,-22.42092"
       style="display:inline;fill:#a5e4dc;fill-opacity:1;fill-rule:nonzero;stroke:none;stroke-width:0.28029"
       id="path249-2"
       sodipodi:nodetypes="ccccscccccc" />
    <path
       d="m 72.077753,65.791922 c 0,1.203406 -0.980843,2.178718 -2.190731,2.178718 -1.209895,0 -2.190453,-0.975312 -2.190453,-2.178718 0,-1.203405 0.980558,-2.178995 2.190453,-2.178995 1.209888,0 2.190731,0.97559 2.190731,2.178995"
       style="display:inline;fill:#fa9191;fill-opacity:1;fill-rule:nonzero;stroke:none;stroke-width:0.28029"
       id="path201" />
    <path
       d="M -7.4916482,74.305943 28.835471,38.173506"
       style="display:inline;fill:none;stroke:#ffffff;stroke-width:0.84087;stroke-linecap:round;stroke-linejoin:miter;stroke-miterlimit:10;stroke-dasharray:none;stroke-opacity:1"
       id="path217" />
    <path
       d="M -25.010526,82.305975 11.316593,46.173531"
       style="display:inline;fill:none;stroke:#ffffff;stroke-width:0.84087;stroke-linecap:round;stroke-linejoin:miter;stroke-miterlimit:10;stroke-dasharray:none;stroke-opacity:1"
       id="path217-1" />
    <path
       d="M 37.860562,114.93863 70.420854,82.55312"
       style="display:inline;fill:none;stroke:#ffffff;stroke-width:0.84087;stroke-linecap:round;stroke-linejoin:miter;stroke-miterlimit:10;stroke-dasharray:none;stroke-opacity:1"
       id="path221-5" />
    <path
       d="m 53.329479,10.14377 c 0,2.431134 -1.981647,4.402158 -4.425878,4.402158 -2.444234,0 -4.425589,-1.971024 -4.425589,-4.402158 0,-2.4311335 1.981355,-4.4021504 4.425589,-4.4021504 2.444231,0 4.425878,1.9710169 4.425878,4.4021504"
       style="display:inline;fill:#c0f0e6;fill-opacity:1;fill-rule:nonzero;stroke:none;stroke-width:0.28029"
       id="path229" />
    <path
       d="m 28.675263,62.877572 c 0,3.157932 -2.573519,5.71794 -5.748461,5.71794 -3.174951,0 -5.74847,-2.560008 -5.74847,-5.71794 0,-3.15793 2.573519,-5.717655 5.74847,-5.717655 3.174942,0 5.748461,2.559725 5.748461,5.717655"
       style="display:inline;fill:#ffffff;fill-opacity:1;fill-rule:nonzero;stroke:none;stroke-width:0.28029"
       id="path241" />
    <path
       d="m 112.73175,81.70874 7.92879,-7.886027"
       style="display:inline;fill:#ffb2a6;fill-opacity:1;stroke:#fa9191;stroke-width:0.84087;stroke-linecap:round;stroke-linejoin:miter;stroke-miterlimit:10;stroke-dasharray:none;stroke-opacity:1"
       id="path273" />
    <path
       d="m 194.7762,37.39742 c 0,6.25043 -5.06707,11.317773 -11.31777,11.317773 -6.25071,0 -11.31777,-5.067343 -11.31777,-11.317773 0,-6.250703 5.06706,-11.317772 11.31777,-11.317772 6.2507,0 11.31777,5.067069 11.31777,11.317772"
       style="display:inline;fill:#ffd31d;fill-opacity:1;fill-rule:nonzero;stroke:none;stroke-width:0.277784"
       id="path37" />
    <path
       d="m 141.40947,112.87424 c 0,1.29956 -1.05925,2.35314 -2.36582,2.35314 -1.30657,0 -2.36581,-1.05358 -2.36581,-2.35314 0,-1.29957 1.05924,-2.35343 2.36581,-2.35343 1.30657,0 2.36582,1.05386 2.36582,2.35343"
       style="display:inline;fill:#ffd31d;fill-opacity:1;fill-rule:nonzero;stroke:none;stroke-width:0.28029"
       id="path49" />
    <path
       d="m 19.807341,258.24729 c 0,1.41057 -1.149729,2.55413 -2.567905,2.55413 -1.418176,0 -2.567896,-1.14356 -2.567896,-2.55413 0,-1.41058 1.14972,-2.55446 2.567896,-2.55446 1.418176,0 2.567905,1.14388 2.567905,2.55446"
       style="display:inline;fill:#ffd31d;fill-opacity:1;fill-rule:nonzero;stroke:none;stroke-width:0.304232"
       id="path49-8" />
    <path
       d="m 163.27805,12.21237 v 0 c 0.48864,-0.488622 1.28086,-0.488622 1.76948,0 l 3.76815,3.767868 c 0.48863,0.488624 0.48863,1.281144 0,1.770044 -0.48862,0.488345 -1.28114,0.488345 -1.77005,0 l -3.76758,-3.768147 c -0.48889,-0.488623 -0.48889,-1.280863 0,-1.769765"
       style="display:inline;fill:#fa9191;fill-opacity:1;fill-rule:nonzero;stroke:none;stroke-width:0.277784"
       id="path65" />
    <path
       d="m 168.81557,12.21237 v 0 c 0.48891,0.488902 0.48891,1.281142 0,1.769765 l -3.76785,3.768147 c -0.48863,0.488345 -1.28116,0.488345 -1.76978,0 -0.48861,-0.4889 -0.48861,-1.28142 0,-1.770044 l 3.76788,-3.767868 c 0.48891,-0.488622 1.28115,-0.488622 1.76975,0"
       style="display:inline;fill:#fa9191;fill-opacity:1;fill-rule:nonzero;stroke:none;stroke-width:0.277784"
       id="path69" />
    <path
       d="m 53.513979,163.43309 1.96815,-1.95759 c 1.335803,-1.32893 3.502084,-1.32893 4.838164,0 1.335512,1.32892 1.335512,3.48331 0,4.81223 -23.587931,23.55403 -47.387323,47.79668 -71.106965,71.21983 l -1.653386,-7.35406"
       style="display:inline;fill:#a5e4dc;fill-opacity:1;fill-rule:nonzero;stroke:none;stroke-width:0.28029"
       id="path249-2-5"
       sodipodi:nodetypes="cccccc" />
    <path
       d="m 78.490211,124.37212 1.968144,-1.95761 c 1.335794,-1.32891 3.502074,-1.32891 4.838157,0 1.335517,1.32892 1.335517,3.4833 0,4.81225 -23.587934,23.55401 -74.437379,72.90808 -98.15702,96.33123 l 0.330283,-9.68582"
       style="display:inline;fill:#a5e4dc;fill-opacity:1;fill-rule:nonzero;stroke:none;stroke-width:0.28029"
       id="path249-2-5-8"
       sodipodi:nodetypes="cccccc" />
    <path
       d="m 189.41155,171.8793 c 0,2.21619 -1.80616,4.01268 -4.03429,4.01268 -2.22837,0 -4.03454,-1.79649 -4.03454,-4.01268 0,-2.2162 1.80617,-4.01267 4.03454,-4.01267 2.22813,0 4.03429,1.79647 4.03429,4.01267"
       style="display:inline;fill:#ffd047;fill-opacity:1;fill-rule:nonzero;stroke:none;stroke-width:0.229089"
       id="path45-4" />
    <path
       d="m 206.6466,287.60025 c 0,5.69361 -4.61567,10.30953 -10.30952,10.30953 -5.69388,0 -10.30954,-4.61592 -10.30954,-10.30953 0,-5.69387 4.61566,-10.30954 10.30954,-10.30954 5.69385,0 10.30952,4.61567 10.30952,10.30954"
       style="display:inline;fill:#ffd31d;fill-opacity:1;fill-rule:nonzero;stroke:none;stroke-width:0.253039"
       id="path37-9" />
    <path
       d="m 191.17733,146.49021 v 0 c 0.48862,-0.48864 1.28086,-0.48864 1.76949,0 l 3.76814,3.76785 c 0.48862,0.48863 0.48862,1.28115 0,1.77005 -0.48862,0.48835 -1.28113,0.48835 -1.77004,0 l -3.76759,-3.76815 c -0.48889,-0.48862 -0.48889,-1.28086 0,-1.76975"
       style="display:inline;fill:#fa9191;fill-opacity:1;fill-rule:nonzero;stroke:none;stroke-width:0.277784"
       id="path65-6" />
    <path
       d="m 196.71484,146.49021 v 0 c 0.48891,0.48889 0.48891,1.28113 0,1.76975 l -3.76785,3.76815 c -0.48862,0.48835 -1.28115,0.48835 -1.76978,0 -0.48861,-0.4889 -0.48861,-1.28142 0,-1.77005 l 3.76787,-3.76785 c 0.48891,-0.48864 1.28115,-0.48864 1.76976,0"
       style="display:inline;fill:#fa9191;fill-opacity:1;fill-rule:nonzero;stroke:none;stroke-width:0.277784"
       id="path69-9" />
    <path
       d="m 7.698552,236.82662 v 0 c 0.6860635,-0.68238 1.7984217,-0.68238 2.484477,0 l 5.290735,5.26197 c 0.686055,0.68239 0.686055,1.78919 0,2.47195 -0.686064,0.682 -1.798815,0.682 -2.485265,0 l -5.289947,-5.26237 c -0.6864415,-0.68238 -0.6864415,-1.78877 0,-2.47155"
       style="display:inline;fill:#fa9191;fill-opacity:1;fill-rule:nonzero;stroke:none;stroke-width:0.388978"
       id="path65-2" />
    <path
       d="m 15.473607,236.82662 v 0 c 0.686448,0.68278 0.686448,1.78917 0,2.47155 l -5.290341,5.26237 c -0.6860563,0.682 -1.7988079,0.682 -2.4848635,0 -0.6860641,-0.68276 -0.6860641,-1.78956 0,-2.47195 l 5.2903335,-5.26197 c 0.68645,-0.68238 1.798806,-0.68238 2.484871,0"
       style="display:inline;fill:#fa9191;fill-opacity:1;fill-rule:nonzero;stroke:none;stroke-width:0.388978"
       id="path69-2" />
    <path
       d="m 196.85933,267.9542 c 0,2.35082 -1.90591,4.25674 -4.25673,4.25674 -2.35082,0 -4.25644,-1.90592 -4.25644,-4.25674 0,-2.35082 1.90562,-4.25672 4.25644,-4.25672 2.35082,0 4.25673,1.9059 4.25673,4.25672"
       style="display:inline;fill:#fa9191;fill-opacity:1;fill-rule:nonzero;stroke:none;stroke-width:0.270302"
       id="path229-0-8" />
    <path
       d="m 182.54571,288.08719 c 0,1.61951 -1.31277,2.93228 -2.93199,2.93228 -1.61923,0 -2.93226,-1.31277 -2.93226,-2.93228 0,-1.61922 1.31303,-2.93199 2.93226,-2.93199 1.61922,0 2.93199,1.31277 2.93199,2.93199"
       style="display:inline;fill:#a5e4dc;fill-opacity:1;fill-rule:nonzero;stroke:none;stroke-width:0.276839"
       id="path85-1" />
  </g>
</svg>
