<?xml version="1.0" encoding="UTF-8" standalone="no"?>
<!-- Created with Inkscape (http://www.inkscape.org/) -->

<svg
   width="210mm"
   height="104mm"
   viewBox="0 0 210 104"
   version="1.1"
   id="svg1517"
   inkscape:version="1.2.1 (9c6d41e410, 2022-07-14)"
   sodipodi:docname="background_end.svg"
   xmlns:inkscape="http://www.inkscape.org/namespaces/inkscape"
   xmlns:sodipodi="http://sodipodi.sourceforge.net/DTD/sodipodi-0.dtd"
   xmlns="http://www.w3.org/2000/svg"
   xmlns:svg="http://www.w3.org/2000/svg">
  <sodipodi:namedview
     id="namedview1519"
     pagecolor="#ffffff"
     bordercolor="#000000"
     borderopacity="0.25"
     inkscape:showpageshadow="2"
     inkscape:pageopacity="0.0"
     inkscape:pagecheckerboard="0"
     inkscape:deskcolor="#d1d1d1"
     inkscape:document-units="mm"
     showgrid="false"
     inkscape:zoom="0.914906"
     inkscape:cx="448.13347"
     inkscape:cy="366.15783"
     inkscape:window-width="2560"
     inkscape:window-height="1334"
     inkscape:window-x="-11"
     inkscape:window-y="-11"
     inkscape:window-maximized="1"
     inkscape:current-layer="layer1" />
  <defs
     id="defs1514" />
  <g
     inkscape:label="Calque 1"
     inkscape:groupmode="layer"
     id="layer1">
    <path
       d="m 116.55876,85.954784 c 0,2.308391 -1.87122,4.179647 -4.17963,4.179647 -2.30865,0 -4.17988,-1.871256 -4.17988,-4.179647 0,-2.30841 1.87123,-4.17967 4.17988,-4.17967 2.30841,0 4.17963,1.87126 4.17963,4.17967"
       style="display:inline;fill:#ffd047;fill-opacity:1;fill-rule:nonzero;stroke:none;stroke-width:0.237981"
       id="path45-4-0" />
    <path
       d="m 193.65984,14.70464 c -10.9139,-10.5757505 -25.04239,3.075305 -14.4393,14.439106 l 11.16294,12.694368 c 0,0 1.7533,2.85196 0.0775,4.599735 -2.03836,2.125917 -4.70185,-0.09632 -4.70185,-0.09632 -6.96078,-8.196062 -14.5883,-15.740392 -22.18311,-23.335188 -5.0157,-5.015683 -13.14747,-5.015683 -18.16315,0 -5.01547,5.015433 -5.01547,13.147232 0,18.162692 L 162.9837,58.73985 c 0.76306,0.763317 0.76306,2.000883 0,2.763981 -0.76332,0.763327 -2.00068,0.763327 -2.76398,0 L 134.19924,35.483325 c -2.83491,-2.834915 -7.4312,-2.834915 -10.26611,0 -2.8347,2.834914 -2.8347,7.430992 0,10.266124 1.55309,3.003305 18.82625,21.414413 25.47581,28.64964 2.52903,2.881388 -1.32685,6.114904 -3.75498,3.730211 l -1.7953,-1.501966 c -3.59822,-3.59844 -9.43208,-3.59844 -13.03033,0 -3.59819,3.59824 -3.59819,9.432066 0,13.030361 33.42101,35.630945 40.82047,43.376875 70.97578,74.981825 l 84.11427,-80.682129 c 0,0 -62.82642,-60.025863 -70.70214,-68.340997 0,0 -6.25097,5.894193 -6.96891,6.551504 -0.79873,0.73129 -2.55944,1.908284 -4.27248,1.69798 -2.24991,-0.276206 -3.29968,-1.967216 -4.07863,-2.664501 -1.05299,-0.942567 -6.23638,-6.496737 -6.23638,-6.496737 z"
       style="display:inline;fill:#a5e4dc;fill-opacity:1;fill-rule:nonzero;stroke:none;stroke-width:0.21697"
       id="path61-4-1"
       sodipodi:nodetypes="cccsccsscsssccccccccccsssc" />
    <path
       d="m 176.5926,72.031195 -0.98738,-0.9874 c -0.67013,-0.670269 -1.7569,-0.670269 -2.42718,0 -0.67001,0.670306 -0.67001,1.756924 0,2.427195 11.8335,11.880219 37.34345,36.77339 49.24305,48.58753 l -0.16571,-4.88532"
       style="display:inline;fill:#c0f0e6;fill-opacity:1;fill-rule:nonzero;stroke:none;stroke-width:0.140995"
       id="path249-2-5-8-8"
       sodipodi:nodetypes="cccccc" />
    <path
       d="M 220.4076,107.51261 154.08259,43.276102 c -1.22609,-1.226074 -1.22609,-3.214165 0,-4.440487 1.22632,-1.226292 3.21441,-1.226292 4.44051,0 l 30.45023,30.171822 c 0.42221,0.421996 2.42911,0.491595 2.85134,0.06957 0.422,-0.422215 0.28507,-2.362039 -0.13922,-2.781757 L 165.89422,40.782453 c -0.66709,-0.659865 -0.6635,-1.739006 0,-2.402285 0.66326,-0.663252 1.72729,-0.651316 2.40227,0 l 59.5866,57.498342 c -6.16574,9.61845 -0.29539,0.73876 -7.47549,11.6341"
       style="display:inline;fill:#c0f0e6;fill-opacity:1;fill-rule:nonzero;stroke:none;stroke-width:0.21697"
       id="path253-5"
       sodipodi:nodetypes="ccccccsscscc" />
    <path
       d="m 131.01125,61.824759 c -3.52221,0 -6.37649,-2.854066 -6.37649,-6.374924 0,-3.520703 2.85428,-6.374879 6.37649,-6.374879 3.52082,0 6.37486,2.854176 6.37486,6.374879 0,3.520858 -2.85404,6.374924 -6.37486,6.374924 m 0,-14.314534 c -4.37819,0 -7.94124,3.561454 -7.94124,7.93961 0,4.378279 3.56305,7.94124 7.94124,7.94124 4.37827,0 7.93975,-3.562961 7.93975,-7.94124 0,-4.378156 -3.56148,-7.93961 -7.93975,-7.93961"
       style="display:inline;fill:#c0f0e6;fill-opacity:1;fill-rule:nonzero;stroke:none;stroke-width:0.113494"
       id="path245-5-8" />
    <path
       d="M 190.99897,21.780934 176.43815,7.4617562"
       style="display:inline;fill:#ffb2a6;fill-opacity:1;stroke:#fa9191;stroke-width:0.642677;stroke-linecap:round;stroke-linejoin:miter;stroke-miterlimit:10;stroke-dasharray:none;stroke-opacity:1"
       id="path257-3"
       sodipodi:nodetypes="cc" />
    <path
       d="M 164.92807,111.96491 141.69359,88.730477"
       style="display:inline;fill:none;stroke:#ffffff;stroke-width:0.539258;stroke-linecap:round;stroke-linejoin:miter;stroke-miterlimit:10;stroke-dasharray:none;stroke-opacity:1"
       id="path217-3" />
    <path
       d="M 164.60907,117.18364 134.83228,87.406887"
       style="display:inline;fill:none;stroke:#ffffff;stroke-width:0.691104;stroke-linecap:round;stroke-linejoin:miter;stroke-miterlimit:10;stroke-dasharray:none;stroke-opacity:1"
       id="path217-3-2" />
    <path
       d="M 200.31535,26.672867 187.90451,14.694997"
       style="display:inline;fill:none;stroke:#ffffff;stroke-width:0.493784;stroke-linecap:round;stroke-linejoin:miter;stroke-miterlimit:10;stroke-dasharray:none;stroke-opacity:1"
       id="path217-3-2-6"
       sodipodi:nodetypes="cc" />
    <path
       d="m 155.70958,81.773486 c 0,1.363943 -1.10558,2.469683 -2.46954,2.469683 -1.36396,0 -2.46957,-1.10574 -2.46957,-2.469683 0,-1.363954 1.10561,-2.46955 2.46957,-2.46955 1.36396,0 2.46954,1.105596 2.46954,2.46955"
       style="display:inline;fill:#ffffff;fill-opacity:1;fill-rule:nonzero;stroke:none;stroke-width:0.120737"
       id="path241-5" />
    <path
       d="m 21.633927,87.931176 c 0,4.59081 -3.721651,8.312677 -8.31267,8.312677 -4.5910071,0 -8.3126683,-3.721867 -8.3126683,-8.312677 0,-4.591011 3.7216612,-8.312678 8.3126683,-8.312678 4.591019,0 8.31267,3.721667 8.31267,8.312678"
       style="display:inline;fill:#ffd31d;fill-opacity:1;fill-rule:nonzero;stroke:none;stroke-width:0.204026"
       id="path37-9-6" />
    <path
       d="m 25.807184,94.588101 v 0 c 0.333714,-0.333727 0.874796,-0.333727 1.208509,0 l 2.573528,2.57334 c 0.333718,0.333714 0.333718,0.874978 0,1.208879 -0.333714,0.33354 -0.874984,0.33354 -1.208885,0 l -2.573152,-2.573526 c -0.333903,-0.333716 -0.333903,-0.87477 0,-1.208693"
       style="display:inline;fill:#fa9191;fill-opacity:1;fill-rule:nonzero;stroke:none;stroke-width:0.189719"
       id="path65-5" />
    <path
       d="m 29.589141,94.588101 v 0 c 0.333911,0.333923 0.333911,0.874977 0,1.208693 l -2.573338,2.573526 c -0.333714,0.33354 -0.874976,0.33354 -1.20869,0 -0.333713,-0.333901 -0.333713,-0.875165 0,-1.208879 l 2.573339,-2.57334 c 0.333905,-0.333727 0.874976,-0.333727 1.208689,0"
       style="display:inline;fill:#fa9191;fill-opacity:1;fill-rule:nonzero;stroke:none;stroke-width:0.189719"
       id="path69-7" />
    <path
       d="m 127.13757,19.577875 c 0,0.309295 -0.25057,0.560018 -0.55984,0.560018 -0.30929,0 -0.56021,-0.250723 -0.56021,-0.560018 0,-0.309293 0.25092,-0.560041 0.56021,-0.560041 0.30927,0 0.55984,0.250748 0.55984,0.560041"
       style="display:inline;fill:#fa9191;fill-opacity:1;fill-rule:nonzero;stroke:none;stroke-width:0.177448"
       id="path89-3" />
    <path
       d="m 127.13757,22.503759 c 0,0.309294 -0.25057,0.560015 -0.55984,0.560015 -0.30929,0 -0.56021,-0.250721 -0.56021,-0.560015 0,-0.309294 0.25092,-0.560044 0.56021,-0.560044 0.30927,0 0.55984,0.25075 0.55984,0.560044"
       style="display:inline;fill:#fa9191;fill-opacity:1;fill-rule:nonzero;stroke:none;stroke-width:0.177448"
       id="path93-6" />
    <path
       d="m 129.98726,19.634782 c 0,0.309293 -0.25072,0.560044 -0.56001,0.560044 -0.30927,0 -0.5602,-0.250751 -0.5602,-0.560044 0,-0.309266 0.25093,-0.560014 0.5602,-0.560014 0.30929,0 0.56001,0.250748 0.56001,0.560014"
       style="display:inline;fill:#fa9191;fill-opacity:1;fill-rule:nonzero;stroke:none;stroke-width:0.177448"
       id="path97-8" />
    <path
       d="m 129.98726,22.503759 c 0,0.309294 -0.25072,0.560015 -0.56001,0.560015 -0.30927,0 -0.5602,-0.250721 -0.5602,-0.560015 0,-0.309294 0.25093,-0.560044 0.5602,-0.560044 0.30929,0 0.56001,0.25075 0.56001,0.560044"
       style="display:inline;fill:#fa9191;fill-opacity:1;fill-rule:nonzero;stroke:none;stroke-width:0.177448"
       id="path101-5" />
    <path
       d="m 25.543202,70.144492 c 0,1.838247 -1.490376,3.328634 -3.328655,3.328634 -1.838284,0 -3.32844,-1.490387 -3.32844,-3.328634 0,-1.838334 1.490156,-3.328677 3.32844,-3.328677 1.838279,0 3.328655,1.490343 3.328655,3.328677"
       style="display:inline;fill:#c0f0e6;fill-opacity:1;fill-rule:nonzero;stroke:none;stroke-width:0.211369"
       id="path229-0" />
    <path
       d="m 180.72372,28.437912 c 0,1.175327 -0.95271,2.128025 -2.12782,2.128025 -1.17512,0 -2.12804,-0.952698 -2.12804,-2.128025 0,-1.175105 0.95292,-2.127803 2.12804,-2.127803 1.17511,0 2.12782,0.952698 2.12782,2.127803"
       style="display:inline;fill:#fa9191;fill-opacity:1;fill-rule:nonzero;stroke:none;stroke-width:0.200908"
       id="path85-3" />
    <path
       d="m 20.667911,28.050698 c 0,1.175328 -0.952712,2.128026 -2.127825,2.128026 -1.175106,0 -2.128022,-0.952698 -2.128022,-2.128026 0,-1.175105 0.952916,-2.127804 2.128022,-2.127804 1.175113,0 2.127825,0.952699 2.127825,2.127804"
       style="display:inline;fill:#fa9191;fill-opacity:1;fill-rule:nonzero;stroke:none;stroke-width:0.200908"
       id="path85-3-2" />
  </g>
</svg>
